<svg xmlns="http://www.w3.org/2000/svg" height="24" width="24" viewBox="0 0 24 24"><path d="M21.586 9.023v9.352h1.71q.282 0 .517.187.187.235.187.493v2.742q0 .258-.188.492-.21.211-.515.211H.68q-.282 0-.47-.21-.21-.212-.21-.493v-2.742q0-.282.21-.493.188-.187.47-.187h1.71V9.023H.68q-.282 0-.47-.21Q0 8.647 0 8.342V5.93q0-.446.469-.633Q4.242 4.03 11.766 1.523q.117-.023.21-.023h.07q.071 0 .165.023 3.773 1.266 11.32 3.774.469.187.469.656v2.39q0 .282-.188.47-.21.21-.515.21zM1.359 7.664h21.258V6.445Q19.97 5.555 12 2.883q-2.648.89-10.64 3.562zm16.125 10.758V9.07H14.04v9.352zM6.516 9.07v9.352h3.421V9.07zm4.78 0v9.352h1.384V9.07zm-7.523 9.352h1.36V9.07h-1.36zm18.844 1.36H1.36v1.382h21.258zM20.227 9.07h-1.383v9.352h1.383z" fill="currentColor"/></svg>