<svg xmlns="http://www.w3.org/2000/svg" width="24" height="24" viewBox="0 0 24 24"><path d="M19.898 0H4.945q-.773 0-1.172.492-.375.446-.375 1.055v2.976h-.82q-.305 0-.515.211-.211.235-.211.54 0 .304.21.515.211.211.516.211h.82v3.023h-.75q-.304 0-.515.211-.211.211-.211.516 0 .305.21.516.212.21.516.21h.75v3.047h-.773q-.281 0-.492.211-.235.211-.235.516 0 .305.235.516.21.234.492.234h.773v3h-.773q-.281 0-.492.21-.235.212-.235.517 0 .304.235.515.21.235.492.235h.773V22.5q0 .938.563 1.219.539.281.96.281h14.977q.938 0 1.594-.656.656-.657.656-1.594V2.25q0-.938-.656-1.594Q20.836 0 19.898 0zm-15 22.5v-3.023h.774q.305 0 .539-.235.21-.21.21-.515 0-.305-.21-.516Q5.953 18 5.67 18h-.773v-3h.774q.305 0 .539-.234.21-.211.21-.516 0-.305-.21-.516-.258-.21-.54-.21h-.773v-3.047h.797q.305 0 .516-.211.21-.211.21-.516 0-.305-.21-.516-.211-.21-.516-.21h-.797V6h.727q.305 0 .516-.21.21-.212.21-.517 0-.304-.21-.539-.211-.21-.516-.21h-.727V1.5h12v21zm15.75-.75q0 .305-.21.516-.235.234-.54.234h-1.5v-21h1.5q.282 0 .54.21.21.259.21.54z" fill="currentColor"/></svg>