<svg xmlns="http://www.w3.org/2000/svg" height="24" width="24" viewBox="0 0 24 24"><path d="M7.596 2.843q.934-.377 1.948-.377 1.014 0 1.949.377.935.338 1.71.975.756.576 1.233 1.332.477.736.477 1.491v2.983q0 .457-.1 1.253-.119.755-.377 1.451-.259.696-.696 1.412-.378.636-1.034 1.153 1.73.835 5.19 2.486 1.173.656 1.173 1.173v1.81q0 .457-.338.834-.378.338-.835.338H1.193q-.477 0-.855-.338Q0 20.82 0 20.361v-1.809l1.193-1.173q1.75-.836 5.23-2.486-.657-.537-1.054-1.213-.418-.676-.696-1.431-.299-.836-.378-1.452-.12-.696-.12-1.173V6.64q0-.735.458-1.491.477-.756 1.233-1.352.735-.597 1.73-.955zm3.44 1.094q-.776-.278-1.492-.278-.735 0-1.51.278-.756.298-1.333.736-.537.397-.974.974-.358.537-.358.994v2.983q0 .915.437 2.227.438 1.352 1.372 2.108.239.198.358.477.14.338.08.616-.02.279-.22.537-.158.219-.456.398-1.75.815-5.25 2.465-.02.02-.139.08-.1.06-.16.1-.198.139-.198.516v1.213q4.176 0 16.683-.02v-1.153q0-.457-.239-.616l-.238-.12-5.21-2.445q-.298-.18-.457-.398-.16-.179-.239-.557-.02-.298.1-.616.119-.279.357-.477.955-.756 1.372-2.108.398-1.412.398-2.227V6.64q0-.497-.378-1.014-.358-.497-.954-.954-.597-.438-1.352-.736zM24 7.357q0 .219-.16.378-.158.159-.377.159h-5.826q-.219 0-.378-.16-.159-.158-.159-.377T17.26 7q.158-.159.377-.159h5.826q.219 0 .378.16.159.138.159.357zm0 2.128q0 .218-.16.377-.158.16-.377.16h-5.826q-.219 0-.378-.16-.159-.159-.159-.377 0-.22.16-.378.158-.16.377-.16h5.826q.219 0 .378.16.159.159.159.378zm0 2.127q0 .219-.16.378-.158.14-.377.14h-5.826q-.219 0-.378-.14-.159-.159-.159-.378 0-.218.16-.378.158-.159.377-.159h5.826q.219 0 .378.16.159.159.159.377z" fill="currentColor"/></svg>