<svg xmlns="http://www.w3.org/2000/svg" width="24" height="24" viewBox="0 0 24 24"><path d="M18.75 9H18V6.14q0-1.359-.445-2.413-.492-1.196-1.242-1.946-.82-.82-1.899-1.312Q13.22 0 11.977 0q-1.29 0-2.438.469-1.101.492-1.875 1.312-.797.797-1.219 1.969Q6 4.805 6 6.14V9h-.75q-1.242 0-2.11.867-.89.89-.89 2.133v9q0 1.219.89 2.11.891.89 2.11.89h13.5q1.242 0 2.133-.89.867-.868.867-2.11v-9q0-1.266-.867-2.133T18.75 9zM7.5 6.14q0-1.921 1.219-3.28Q9.938 1.5 11.977 1.5q2.015 0 3.28 1.336Q16.5 4.219 16.5 6.14V9h-9zM20.25 21q0 .61-.445 1.055-.446.445-1.055.445H5.25q-.61 0-1.055-.445Q3.75 21.609 3.75 21v-9q0-.61.445-1.055.446-.445 1.055-.445h13.5q.61 0 1.055.445.445.446.445 1.055zM12 13.5q-.633 0-1.055.422-.445.445-.445 1.078 0 .422.21.75.212.352.54.54v2.46q0 .305.234.516.211.234.516.234.305 0 .54-.234.21-.211.21-.516v-2.46q.328-.188.54-.54.21-.328.21-.75 0-.61-.422-1.078Q12.61 13.5 12 13.5z" fill="currentColor"/></svg>