<svg xmlns="http://www.w3.org/2000/svg" height="24" width="24" viewBox="0 0 24 24"><path d="M23.977 22.082l-1.971-11.79q-.117-1.17-1.032-1.965-.962-.818-2.065-.818h-1.666V5.52q0-1.193-.375-2.152-.399-1.005-1.08-1.754-.703-.725-1.665-1.193Q13.161 0 12.012 0 10.862 0 9.9.421 8.938.89 8.235 1.614q-.704.702-1.103 1.754-.399 1.076-.399 2.152V7.51H4.927q-1.103 0-2.065.818-.915.82-1.032 1.919-.61 3.93-1.807 11.812Q0 22.292 0 22.48q0 .233.047.397.094.398.328.632.212.234.54.35.328.141.727.141h20.481q.516 0 .939-.187.281-.14.516-.374.14-.117.305-.515.094-.234.117-.585 0-.117-.023-.257zM8.235 5.52q0-1.66 1.055-2.853 1.056-1.17 2.722-1.17 1.665 0 2.698 1.17 1.032 1.24 1.032 2.853V7.51H8.235zm13.959 16.96q-5.115 0-20.458.023-.094 0-.164-.07-.07-.024-.094-.117 0-.024.023-.07.61-3.93 1.807-11.79.07-.585.563-1.03.47-.42 1.056-.42h1.806v1.707q-.328.211-.54.538-.21.351-.21.749 0 .632.445 1.053.422.444 1.056.444.633 0 1.079-.444.422-.421.422-1.053 0-.398-.21-.749-.212-.327-.54-.538V9.006h7.507v1.707q-.329.211-.54.538-.21.351-.21.749 0 .632.445 1.053.422.444 1.056.444.633 0 1.079-.444.422-.421.422-1.053 0-.398-.211-.749-.211-.327-.54-.538V9.006h1.666q.587 0 1.08.42.468.469.539 1.077.657 3.93 1.947 11.766v.047q0 .047-.047.093-.07.07-.234.07z" fill="currentColor"/></svg>