<?xml version="1.0" encoding="UTF-8" standalone="no"?>
<svg
   xmlns:dc="http://purl.org/dc/elements/1.1/"
   xmlns:cc="http://creativecommons.org/ns#"
   xmlns:rdf="http://www.w3.org/1999/02/22-rdf-syntax-ns#"
   xmlns:svg="http://www.w3.org/2000/svg"
   xmlns="http://www.w3.org/2000/svg"
   xmlns:sodipodi="http://sodipodi.sourceforge.net/DTD/sodipodi-0.dtd"
   xmlns:inkscape="http://www.inkscape.org/namespaces/inkscape"
   version="1.1"
   viewBox="0 -67 24 24"
   id="svg6"
   sodipodi:docname="unie08c_MyFontRegular.svg"
   width="24"
   height="24"
   inkscape:version="0.92.2 2405546, 2018-03-11">
  <metadata
     id="metadata12">
    <rdf:RDF>
      <cc:Work
         rdf:about="">
        <dc:format>image/svg+xml</dc:format>
        <dc:type
           rdf:resource="http://purl.org/dc/dcmitype/StillImage" />
        <dc:title></dc:title>
      </cc:Work>
    </rdf:RDF>
  </metadata>
  <defs
     id="defs10" />
  <sodipodi:namedview
     pagecolor="#ffffff"
     bordercolor="#666666"
     borderopacity="1"
     objecttolerance="10"
     gridtolerance="10"
     guidetolerance="10"
     inkscape:pageopacity="0"
     inkscape:pageshadow="2"
     inkscape:window-width="1277"
     inkscape:window-height="1010"
     id="namedview8"
     showgrid="false"
     inkscape:zoom="14.75"
     inkscape:cx="10.625079"
     inkscape:cy="1.4926114"
     inkscape:window-x="0"
     inkscape:window-y="0"
     inkscape:window-maximized="0"
     inkscape:current-layer="svg6" />
  <g
     transform="matrix(0.0234375,0,0,-0.0234375,0,-44.5)"
     id="g4">
    <path
       d="m 544,938 q -52,-22 -92,-62 -39,-40 -61,-92 -23,-55 -23,-112 0,-54 18,-102 19,-48 51,-85 -3,0 -13,-2 -7,-3 -12,-8 Q 305,367 90,151 80,142 80,129 80,115 90,106 v -1 h 1 q 39,-40 157,-160 9,-9 22,-9 12,0 23,9 9,9 9,23 0,13 -9,22 -45,46 -136,138 l 83,83 q 34,-34 136,-138 9,-9 22,-9 12,0 23,9 9,9 9,23 0,13 -9,22 -45,46 -136,139 43,43 172,173 5,5 8,12 2,10 2,12 38,-33 86,-52 45,-19 103,-19 57,0 112,23 53,23 91,62 41,42 62,92 23,55 23,112 0,57 -23,112 -21,49 -62,92 -39,39 -91,62 -50,22 -112,22 -62,0 -112,-22 z m 25,-472 q -41,17 -71,48 -31,30 -48,71 -18,41 -18,87 0,46 18,87 16,41 48,72 30,30 71,48 43,17 87,17 44,0 87,-17 40,-17 71,-48 30,-31 48,-72 18,-41 18,-87 0,-46 -18,-87 -18,-41 -48,-71 -31,-31 -71,-48 -41,-18 -87,-18 -46,0 -87,18 z"
       id="path2"
       inkscape:connector-curvature="0"
       style="fill:currentColor" />
  </g>
</svg>
