<svg xmlns="http://www.w3.org/2000/svg" viewBox="0 -67 24 24" width="24" height="24"><path d="M12.75-66.484q-1.219.515-2.156 1.453-.914.937-1.43 2.156-.539 1.29-.539 2.625 0 1.266.422 2.39.445 1.126 1.195 1.993-.07 0-.305.047-.164.07-.28.187-2.509 2.531-7.548 7.594-.234.21-.234.516 0 .328.234.539v.023h.024q.914.938 3.68 3.75.21.211.515.211.281 0 .54-.21.21-.212.21-.54 0-.305-.21-.516Q5.811-45.344 3.68-47.5l1.945-1.945q.797.797 3.188 3.234.21.211.515.211.281 0 .54-.21.21-.212.21-.54 0-.305-.21-.516L6.68-50.523q1.008-1.008 4.03-4.055.118-.117.188-.281.047-.235.047-.282.89.774 2.016 1.22 1.055.444 2.414.444 1.336 0 2.625-.539 1.242-.539 2.133-1.453.96-.984 1.453-2.156.539-1.29.539-2.625 0-1.336-.54-2.625-.491-1.148-1.452-2.156-.914-.914-2.133-1.453Q16.828-67 15.375-67t-2.625.516zm.586 11.062q-.961-.398-1.664-1.125-.727-.703-1.125-1.664-.422-.96-.422-2.039 0-1.078.422-2.04.375-.96 1.125-1.687.703-.703 1.664-1.125 1.008-.398 2.039-.398 1.031 0 2.04.398.937.399 1.663 1.125.703.727 1.125 1.688.422.96.422 2.039 0 1.078-.422 2.04-.422.96-1.125 1.663-.726.727-1.664 1.125-.96.422-2.039.422-1.078 0-2.04-.422z" fill="currentColor"/></svg>