<svg xmlns="http://www.w3.org/2000/svg" width="24" height="24" viewBox="0 0 24 24"><path d="M1.5 20.977q0-.446.258-.633.281-.188.375-.235 2.203-1.03 6.586-3.117.351-.187.586-.492.234-.305.28-.68.048-.445-.093-.773-.164-.305-.469-.586-1.171-.961-1.71-2.649Q6.75 10.079 6.75 9V5.25q0-.563.469-1.242.445-.61 1.195-1.219.774-.586 1.688-.937Q11.062 1.5 12 1.5t1.898.352q.961.398 1.688.914.75.609 1.195 1.218.469.68.469 1.266V9q0 1.078-.492 2.79-.516 1.757-1.735 2.67-.28.235-.445.61-.14.399-.117.75.023.399.281.703.235.305.586.493l2.25 1.054.375-1.5q-.492-.234-1.992-.914.844-.703 1.312-1.5.586-.914.868-1.781.328-1.008.468-1.805.141-.89.141-1.57V5.25q0-.938-.586-1.875-.586-.938-1.547-1.688Q15.61.914 14.461.47 13.17 0 12 0q-1.172 0-2.438.469-1.195.469-2.18 1.219-.96.75-1.546 1.687-.586.938-.586 1.875V9q0 .61.14 1.477.141.867.493 1.828.234.75.867 1.804.54.891 1.336 1.524Q5.883 16.664 1.5 18.75q-.188.094-.75.422Q0 19.64 0 20.25V22.5q0 .61.445 1.055Q.891 24 1.5 24H18v-1.5H1.5zM23.25 19.5H21v-2.25q0-.281-.21-.54-.259-.21-.54-.21-.305 0-.516.21-.234.235-.234.54v2.25h-2.25q-.305 0-.516.21-.234.235-.234.54 0 .305.234.516.211.234.516.234h2.25v2.25q0 .305.234.516.211.234.516.234.305 0 .54-.234.21-.211.21-.516V21h2.25q.305 0 .54-.234.21-.211.21-.516 0-.281-.21-.54-.259-.21-.54-.21z" fill="currentColor"/></svg>