<?xml version="1.0" encoding="UTF-8" standalone="no"?>
<svg
   xmlns:dc="http://purl.org/dc/elements/1.1/"
   xmlns:cc="http://creativecommons.org/ns#"
   xmlns:rdf="http://www.w3.org/1999/02/22-rdf-syntax-ns#"
   xmlns:svg="http://www.w3.org/2000/svg"
   xmlns="http://www.w3.org/2000/svg"
   xmlns:sodipodi="http://sodipodi.sourceforge.net/DTD/sodipodi-0.dtd"
   xmlns:inkscape="http://www.inkscape.org/namespaces/inkscape"
   width="24"
   height="24"
   viewBox="0 0 24 24"
   version="1.1"
   id="svg909"
   sodipodi:docname="registration.svg"
   inkscape:version="0.92.2 2405546, 2018-03-11">
  <metadata
     id="metadata915">
    <rdf:RDF>
      <cc:Work
         rdf:about="">
        <dc:format>image/svg+xml</dc:format>
        <dc:type
           rdf:resource="http://purl.org/dc/dcmitype/StillImage" />
        <dc:title></dc:title>
      </cc:Work>
    </rdf:RDF>
  </metadata>
  <defs
     id="defs913" />
  <sodipodi:namedview
     pagecolor="#ffffff"
     bordercolor="#666666"
     borderopacity="1"
     objecttolerance="10"
     gridtolerance="10"
     guidetolerance="10"
     inkscape:pageopacity="0"
     inkscape:pageshadow="2"
     inkscape:window-width="1277"
     inkscape:window-height="1010"
     id="namedview911"
     showgrid="false"
     showguides="false"
     inkscape:zoom="19.666667"
     inkscape:cx="14.741706"
     inkscape:cy="10.405635"
     inkscape:window-x="1280"
     inkscape:window-y="0"
     inkscape:window-maximized="0"
     inkscape:current-layer="svg909" />
  <path
     d="M0 0h24v24H0z"
     fill="none"
     id="path905" />
  <path
     d="m 15,10 h 3 V 7 h 2 v 3 h 3 v 2 h -3 v 3 h -2 v -3 h -3 z"
     id="path907"
     inkscape:connector-curvature="0"
     sodipodi:nodetypes="ccccccccccccc" />
  <path
     d="m 8.5,10.428571 c 1.778571,0 3.203571,-1.4357142 3.203571,-3.2142853 C 11.703571,5.4357143 10.278571,4 8.5,4 6.7214286,4 5.2857143,5.4357143 5.2857143,7.2142857 c 0,1.7785711 1.4357143,3.2142853 3.2142857,3.2142853 z m 0,2.142858 c -2.4964286,0 -7.5,1.253571 -7.5,3.75 V 19 h 15 v -2.678571 c 0,-2.496429 -5.003571,-3.75 -7.5,-3.75 z"
     id="path4"
     inkscape:connector-curvature="0"
     sodipodi:nodetypes="sssssssccss"
     style="stroke-width:1.07142854" />
</svg>
