<svg xmlns="http://www.w3.org/2000/svg" height="24" width="24" viewBox="0 0 24 24"><path d="M17.484 19.575q-1.172-.656-4.71-2.6 1.335-1.076 1.78-2.762.446-1.64.446-2.857v-3.16q0-.774-.469-1.593-.492-.773-1.265-1.405-.938-.702-1.805-1.03-1.078-.398-2.063-.398-.96 0-2.039.398-1.054.398-1.828 1.03-.797.585-1.289 1.405-.492.82-.492 1.592v3.161q0 1.1.516 2.786.515 1.757 1.851 2.81-1.617.867-4.851 2.623-.164.093-.633.374-.633.398-.633.89V22.736q0 .538.375.89.375.374.89.374h16.22q.515 0 .89-.375.375-.35.375-.89V20.84q0-.562-.633-.913zM17.25 22.5H1.5v-1.334q.023 0 .07-.024.07-.046.117-.093.094-.07.188-.094l.047-.047h.047q1.218-.655 4.851-2.646.328-.187.54-.491.21-.305.234-.68.047-.42-.094-.725-.164-.351-.445-.586-.961-.749-1.383-2.154-.422-1.381-.422-2.27V8.194q0-.82 1.29-1.873 1.265-1.054 2.858-1.054 1.665 0 2.883 1.054Q13.5 7.376 13.5 8.195v3.161q0 .89-.352 2.271-.351 1.405-1.312 2.154-.305.235-.445.586-.164.28-.118.726.024.374.235.679.258.35.539.515l4.71 2.599q0 .023.048.023.023 0 .047.024.023.023.046.023.024 0 .118.047.047.047.07.047.094.047.164.117zm5.484-6.65l-4.78-2.622q1.312-1.03 1.804-2.763.492-1.732.492-2.833v-3.16q0-.797-.492-1.593-.492-.796-1.29-1.428-.82-.656-1.804-1.054Q15.586 0 14.578 0q-1.36 0-2.648.656-1.29.679-2.11 1.615.117.024.492.024.211.023.47.023.374.023.937.164.61-.445 1.336-.702.82-.258 1.523-.258 1.64 0 2.906 1.054 1.266 1.053 1.266 1.896v3.161q0 .96-.375 2.248-.398 1.381-1.36 2.178-.304.234-.445.585-.164.28-.117.726.024.374.235.679.257.351.539.515l4.78 2.599q.024.023.095.023l.046.047.094.047q.047.023.094.023.023.024.094.047l.07.07v1.335h-3.023q.304.234.492.632.187.445.281.867h2.484q.516 0 .891-.375.375-.351.375-.89v-1.873q0-.562-.633-.913z" fill="currentColor"/></svg>