<?xml version="1.0" encoding="UTF-8" standalone="no"?>
<svg
   xmlns="http://www.w3.org/2000/svg"
   height="24"
   width="24"
   fit=""
   preserveAspectRatio="xMidYMid meet"
   viewBox="0 0 24 24"
   version="1.1">
  <path
     d="M 12 2 C 6.48 2 2 6.48 2 12 C 2 17.52 6.48 22 12 22 C 17.52 22 22 17.52 22 12 C 22 6.48 17.52 2 12 2 z M 12 5.4375 L 17.384766 8.2714844 L 17.384766 9.40625 L 6.6152344 9.40625 L 6.6152344 8.2714844 L 12 5.4375 z M 7.75 10.539062 L 9.4492188 10.539062 L 9.4492188 14.505859 L 7.75 14.505859 L 7.75 10.539062 z M 11.150391 10.539062 L 12.849609 10.539062 L 12.849609 14.505859 L 11.150391 14.505859 L 11.150391 10.539062 z M 14.550781 10.539062 L 16.25 10.539062 L 16.25 14.505859 L 14.550781 14.505859 L 14.550781 10.539062 z M 6.6152344 15.638672 L 17.384766 15.638672 L 17.384766 17.339844 L 6.6152344 17.339844 L 6.6152344 15.638672 z "/>
</svg>
