<?xml version="1.0" encoding="UTF-8" standalone="no"?>
<svg
   xmlns:dc="http://purl.org/dc/elements/1.1/"
   xmlns:cc="http://creativecommons.org/ns#"
   xmlns:rdf="http://www.w3.org/1999/02/22-rdf-syntax-ns#"
   xmlns:svg="http://www.w3.org/2000/svg"
   xmlns="http://www.w3.org/2000/svg"
   xmlns:sodipodi="http://sodipodi.sourceforge.net/DTD/sodipodi-0.dtd"
   xmlns:inkscape="http://www.inkscape.org/namespaces/inkscape"
   fill="#000000"
   height="24"
   viewBox="0 0 24 24"
   width="24"
   version="1.1"
   id="svg1436"
   sodipodi:docname="account_balance_circle.svg"
   inkscape:version="0.92.2 5c3e80d, 2017-08-06">
  <metadata
     id="metadata1442">
    <rdf:RDF>
      <cc:Work
         rdf:about="">
        <dc:format>image/svg+xml</dc:format>
        <dc:type
           rdf:resource="http://purl.org/dc/dcmitype/StillImage" />
        <dc:title></dc:title>
      </cc:Work>
    </rdf:RDF>
  </metadata>
  <defs
     id="defs1440" />
  <sodipodi:namedview
     pagecolor="#ffffff"
     bordercolor="#666666"
     borderopacity="1"
     objecttolerance="10"
     gridtolerance="10"
     guidetolerance="10"
     inkscape:pageopacity="0"
     inkscape:pageshadow="2"
     inkscape:window-width="1280"
     inkscape:window-height="1023"
     id="namedview1438"
     showgrid="false"
     inkscape:zoom="19.666667"
     inkscape:cx="6.8260134"
     inkscape:cy="10.163157"
     inkscape:window-x="1280"
     inkscape:window-y="29"
     inkscape:window-maximized="0"
     inkscape:current-layer="svg1436"
     inkscape:measure-start="4.40466,5.49788"
     inkscape:measure-end="6.9043,6.94105" />
  <path
     d="M 12 2 C 6.48 2 2 6.48 2 12 C 2 17.52 6.48 22 12 22 C 17.52 22 22 17.52 22 12 C 22 6.48 17.52 2 12 2 z M 12 4.0917969 L 18.353516 7.4355469 L 18.353516 8.7734375 L 5.6464844 8.7734375 L 5.6464844 7.4355469 L 12 4.0917969 z M 6.984375 10.111328 L 8.9902344 10.111328 L 8.9902344 14.792969 L 6.984375 14.792969 L 6.984375 10.111328 z M 10.996094 10.111328 L 13.003906 10.111328 L 13.003906 14.792969 L 10.996094 14.792969 L 10.996094 10.111328 z M 15.009766 10.111328 L 17.015625 10.111328 L 17.015625 14.792969 L 15.009766 14.792969 L 15.009766 10.111328 z M 5.6464844 16.130859 L 18.353516 16.130859 L 18.353516 18.136719 L 5.6464844 18.136719 L 5.6464844 16.130859 z "
     id="path1432" />
  <path
     d="M0 0h24v24H0z"
     fill="none"
     id="path1434" />
</svg>
