<svg xmlns="http://www.w3.org/2000/svg" viewBox="0 0 24 24" height="24" width="24"><path fill="none" d="M0 0h24v24H0z"/><path d="M12 2.002c-2.56 0-5.119.976-7.07 2.928-3.904 3.903-3.904 10.237 0 14.14 3.903 3.904 10.237 3.904 14.14 0 3.904-3.903 3.904-10.237 0-14.14A9.967 9.967 0 0012 2.002zm0 2.002a7.97 7.97 0 015.656 2.34c3.119 3.118 3.119 8.194 0 11.312-3.118 3.119-8.194 3.119-11.312 0-3.119-3.118-3.119-8.194 0-11.312A7.975 7.975 0 0112 4.004zM9.172 7.758L7.758 9.172 10.586 12l-2.828 2.828 1.414 1.414L12 13.414l2.828 2.828 1.414-1.414L13.414 12l2.828-2.828-1.414-1.414L12 10.586 9.172 7.758z"/></svg>