<svg xmlns="http://www.w3.org/2000/svg" height="24" width="24" viewBox="0 0 24 24"><path d="M24 6.797q0-.399-.281-1.172-.282-.773-1.547-1.125L5.227 1.125q-.915 0-1.57.656-.68.68-.68 1.594v3h-.75q-.914.023-1.57.68Q0 7.71 0 8.625v12q0 .938.656 1.594.656.656 1.594.656h19.5q.938 0 1.594-.656.656-.657.656-1.594zM4.477 3.328q0-.305.21-.515.211-.211.493-.235 5.508 1.125 16.547 3.352-.024.047-.141.21-.117.188-.492.188H4.477zM22.5 20.578q0 .305-.21.516-.235.234-.54.234H2.25q-.305 0-.516-.234-.234-.211-.234-.516v-12q0-.305.234-.539.211-.21.516-.21H21q.469 0 1.031-.188.469-.188.469-.563zm-18-7.453q-.633 0-1.055.445Q3 14.016 3 14.625q0 .633.445 1.055.422.445 1.055.445.61 0 1.055-.445Q6 15.258 6 14.625q0-.61-.445-1.055-.446-.445-1.055-.445z" fill="currentColor"/></svg>