<svg xmlns="http://www.w3.org/2000/svg" viewBox="0 -67 24 24" width="24" height="24"><path d="M22.5-65.25h-21q-.61 0-1.055.445Q0-64.359 0-63.75v17.25q0 .61.445 1.055Q.891-45 1.5-45h21q.61 0 1.055-.445Q24-45.891 24-46.5v-17.25q0-.61-.445-1.055-.446-.445-1.055-.445zm0 18.75h-21v-4.406l6.023-5.836q1.547 1.547 6.211 6.187.188.258.493.211.28 0 .539-.187.914-.82 2.742-2.485 1.242 1.266 4.922 5.086h.047q0 .024.023.047zm0-3.516q-1.102-1.125-4.406-4.523-.211-.164-.469-.211-.21-.023-.516.164-.937.82-2.836 2.461-1.546-1.547-6.187-6.14-.117-.165-.258-.212-.14-.07-.281-.07-.07 0-.305.047-.14.047-.258.164-1.828 1.781-5.484 5.32V-63.75h21zm-4.195-8.18q.445-.421.445-1.054 0-.61-.445-1.055-.446-.445-1.055-.445-.61 0-1.055.445-.445.446-.445 1.055 0 .633.445 1.055.446.445 1.055.445.61 0 1.055-.445z" fill="currentColor"/></svg>