<svg xmlns="http://www.w3.org/2000/svg" width="24" height="24" viewBox="0 0 24 24"><path d="M16.734 18a.537.537 0 00-.383.15.417.417 0 00-.162.34.47.47 0 00.162.358c.102.1.24.154.383.152h5.91a.54.54 0 00.383-.152.47.47 0 00.162-.358.421.421 0 00-.162-.34.54.54 0 00-.383-.15zm0-2.5a.537.537 0 00-.383.15.417.417 0 00-.162.34.47.47 0 00.162.358c.102.1.24.154.383.152h5.91a.54.54 0 00.383-.152.47.47 0 00.162-.358.421.421 0 00-.162-.34.54.54 0 00-.383-.15zM12.03 0c-.806 0-1.667.155-2.586.47-.893.312-1.663.714-2.313 1.204l-.004.002s-.002 0-.003.002l-.002.002-.014.01a5.738 5.738 0 00-1.61 1.63c-.41.634-.604 1.23-.604 1.8v3.82c0 .849.215 1.953.66 3.299l.003.01c.435 1.37 1.207 2.453 2.328 3.272a.227.227 0 01-.034.396 1570.367 1570.367 0 00-6.33 3.173c-.139.073-.41.222-.808.443a.072.072 0 00-.012.01l-.004.001a.17.17 0 01-.003.004c-.245.144-.416.279-.528.42A.711.711 0 000 20.41v2.293c0 .368.13.66.406.9h.002v.003a.055.055 0 00.004.004h.002c.284.263.612.39 1.004.39h21.164c.384 0 .706-.125.987-.379l.023-.015v-.002c.277-.24.408-.531.408-.9v-2.292c0-.29-.152-.551-.477-.764l.154.11-1.296.706c.047.044.128.278.128.343v1.612a.23.23 0 01-.233.235H1.724a.231.231 0 01-.233-.236v-1.612c0-.107.072-.198.175-.225a.184.184 0 00.058-.023c.028-.02.052-.034.083-.062v-.002l.002-.002.001-.002.012-.007.006-.004a.073.073 0 00.007-.004c.031-.021.107-.05.193-.087l.002-.002a.185.185 0 00.05-.03l.038-.035.002-.002a.231.231 0 01.131-.056.178.178 0 00.064-.019 1192.077 1192.077 0 006.241-3.157l.004-.002a.075.075 0 00.015-.012c.245-.133.449-.298.608-.51a.072.072 0 00.012-.027 1.285 1.285 0 00.252-.69v-.008a1.296 1.296 0 00-.083-.67v-.002c-.002-.005-.003-.013-.006-.019v-.004l-.006-.015v-.002a.071.071 0 00-.007-.023 1.799 1.799 0 00-.458-.571c-.004-.006-.01-.01-.015-.015a.157.157 0 00-.033-.035c-.876-.633-1.508-1.549-1.888-2.715a.067.067 0 00-.002-.006l-.001-.002c-.372-1.128-.562-2.061-.562-2.818V5.116c0-.801.628-1.578 1.774-2.445a.071.071 0 00.004-.006.07.07 0 00.003-.002l.002-.002h.002l.002-.002.004-.004a6.196 6.196 0 013.854-1.312c1.493 0 2.806.448 3.906 1.33 1.085.87 1.677 1.654 1.677 2.447v3.82c0 .794.114.69-.196 1.817-.034.127-.13.498-.16.589a.18.18 0 00.023.161.18.18 0 00.147.075h1.154a.184.184 0 00.173-.13c.355-1.245.35-1.619.35-2.511V5.12c0-.57-.182-1.164-.567-1.791l-.006-.008-.002-.002a7.151 7.151 0 00-1.593-1.64l-.004-.001-.006-.004c-.794-.55-1.555-.95-2.28-1.205h-.002l-.003-.001a.07.07 0 00-.008-.002h-.002C13.72.155 12.854 0 12.031 0zM9.358 15.148l.006.015v-.002zM16.734 13a.537.537 0 00-.383.15.417.417 0 00-.162.34.47.47 0 00.162.358c.102.1.24.154.383.152h5.91a.54.54 0 00.383-.152.47.47 0 00.162-.358.421.421 0 00-.162-.34.54.54 0 00-.383-.15z" fill="currentColor"/></svg>