<svg xmlns="http://www.w3.org/2000/svg" xmlns:xlink="http://www.w3.org/1999/xlink" viewBox="0 0 24 24" height="24" width="24"><defs><path d="M0 0h340v340H0z" id="a"/></defs><clipPath id="b"><use height="100%" width="100%" overflow="visible" xlink:href="#a"/></clipPath><g fill="currentColor"><path clip-path="url(#b)" d="M161.956 81.96a2 2 0 00-2-2h-78a2 2 0 00-2 2v78a2 2 0 002 2h78a2 2 0 002-2zm-16 62a2 2 0 01-2 2h-46a2 2 0 01-2-2v-46a2 2 0 012-2h46a2 2 0 012 2zm114-62a2 2 0 00-2-2h-78a2 2 0 00-2 2v78a2 2 0 002 2h78a2 2 0 002-2zm-16 62a2 2 0 01-2 2h-46a2 2 0 01-2-2v-46a2 2 0 012-2h46a2 2 0 012 2zm-82 36.001a2 2 0 00-2-2h-78a2 2 0 00-2 2v78a2 2 0 002 2h78a2 2 0 002-2zm-16 62a2 2 0 01-2 2h-46a2 2 0 01-2-2v-46a2 2 0 012-2h46a2 2 0 012 2z" transform="translate(-6.884 -6.884) scale(.11111)"/><path clip-path="url(#b)" d="M128.956 126.96a2 2 0 01-2 2h-12a2 2 0 01-2-2v-12a2 2 0 012-2h12a2 2 0 012 2zm98 0a2 2 0 01-2 2h-12a2 2 0 01-2-2v-12a2 2 0 012-2h12a2 2 0 012 2zm0 131.001a2 2 0 01-2 2h-12a2 2 0 01-2-2v-12a2 2 0 012-2h12a2 2 0 012 2zm33 0a2 2 0 01-2 2h-12a2 2 0 01-2-2v-12a2 2 0 012-2h12a2 2 0 012 2z" transform="translate(-6.884 -6.884) scale(.11111)"/><path clip-path="url(#b)" d="M243.956 180.292v8c0 1.104-.949 1.669-2.054 1.669h-12c-1.104 0-1.946-.565-1.946-1.669v-8c0-1.104-.949-2.331-2.054-2.331h-46c-1.104 0-1.946 1.227-1.946 2.331v78c0 1.104.842 1.669 1.946 1.669h12c1.104 0 2.054-.565 2.054-1.669v-46c0-1.104.842-2.331 1.946-2.331h13c1.104 0 2.054 1.227 2.054 2.331v12c0 1.104.842 1.669 1.946 1.669h45c1.104 0 2.054-.565 2.054-1.669v-44c0-1.104-.949-2.331-2.054-2.331h-12c-1.104 0-1.946 1.227-1.946 2.331m-115 44.669a2 2 0 01-2 2h-12a2 2 0 01-2-2v-12a2 2 0 012-2h12a2 2 0 012 2z" transform="translate(-6.884 -6.884) scale(.11111)"/></g></svg>