<?xml version="1.0" encoding="UTF-8" standalone="no"?>
<svg xmlns="http://www.w3.org/2000/svg" height="24" width="24" viewBox="0 0 24 24" version="1.1">
  <g transform="matrix(0.0234375,0,0,-0.0234375,-0.28125,22.664062)">
    <path style="fill:currentColor"
       d="M 933,582 V 183 h 73 q 12,0 22,-8 8,-10 8,-21 V 37 q 0,-11 -8,-21 -9,-9 -22,-9 H 41 q -12,0 -20,9 -9,9 -9,21 v 21 29 7 60 q 0,12 9,21 8,8 20,8 h 73 V 582 H 41 q -12,0 -20,9 -9,7 -9,20 v 20 18 14 13 38 q 0,19 20,27 161,54 482,161 5,1 9,1 h 3 q 3,0 7,-1 161,-54 483,-161 20,-8 20,-28 V 611 q 0,-12 -8,-20 -9,-9 -22,-9 z M 70,640 h 907 v 52 Q 864,730 524,844 411,806 70,692 Z M 758,181 V 580 H 611 V 181 Z M 290,580 V 181 h 146 v 399 z m 204,0 V 181 h 59 V 580 Z M 173,181 h 58 V 580 H 173 Z M 977,123 H 863 70 V 64 H 977 Z M 875,580 H 816 V 181 h 59 z" />
  </g>
</svg>
