<?xml version="1.0" encoding="UTF-8" standalone="no"?>
<svg xmlns="http://www.w3.org/2000/svg" version="1.1" viewBox="0 0 24 24" width="24" height="24">
  <g transform="matrix(0.0234375,0,0,-0.0234375,0,22.5)">
    <path style="fill:currentColor"
       d="M 849,960 H 211 q -33,0 -50,-21 -16,-19 -16,-45 V 767 h -35 q -13,0 -22,-9 -9,-10 -9,-23 0,-13 9,-22 9,-9 22,-9 h 35 V 575 h -32 q -13,0 -22,-9 -9,-9 -9,-22 0,-13 9,-22 9,-9 22,-9 h 32 V 383 h -33 q -12,0 -21,-9 -10,-9 -10,-22 0,-13 10,-22 9,-10 21,-10 h 33 V 192 h -33 q -12,0 -21,-9 -10,-9 -10,-22 0,-13 10,-22 9,-10 21,-10 h 33 V 0 q 0,-40 24,-52 23,-12 41,-12 h 639 q 40,0 68,28 28,28 28,68 v 832 q 0,40 -28,68 -28,28 -68,28 z M 209,0 v 129 h 33 q 13,0 23,10 9,9 9,22 0,13 -9,22 -11,9 -23,9 h -33 v 128 h 33 q 13,0 23,10 9,9 9,22 0,13 -9,22 -11,9 -23,9 h -33 v 130 h 34 q 13,0 22,9 9,9 9,22 0,13 -9,22 -9,9 -22,9 h -34 v 129 h 31 q 13,0 22,9 9,9 9,22 0,13 -9,23 -9,9 -22,9 h -31 v 127 2 h 2 510 V 0 Z M 881,32 Q 881,19 872,10 862,0 849,0 h -64 v 896 h 64 q 12,0 23,-9 9,-11 9,-23 z" />
  </g>
</svg>
