<?xml version="1.0" encoding="UTF-8" standalone="no"?>
<svg xmlns="http://www.w3.org/2000/svg" height="24" width="24" viewBox="0 0 24 24" version="1.1">
  <path d="m 1.5000008,22.500006 v -1.523438 c 0,-0.296875 0.085937,-0.507812 0.2578125,-0.632813 0.015625,0 0.039062,-0.01562 0.070312,-0.04687 0.03125,-0.03125 0.054687,-0.04687 0.070312,-0.04687 0.015625,0 0.039062,-0.01562 0.070312,-0.04687 0.03125,-0.03125 0.054687,-0.04687 0.070312,-0.04687 0.015625,0 0.023437,-0.0078 0.023437,-0.02344 0.015625,0 0.03125,-0.0078 0.046875,-0.02344 1.0937506,-0.515624 3.289064,-1.554688 6.5859406,-3.117188 0.2343752,-0.125 0.4296877,-0.289062 0.5859378,-0.492188 0.1562502,-0.203125 0.2500002,-0.429688 0.2812501,-0.679688 0.03125,-0.296875 0,-0.546875 -0.093749,-0.75 C 9.3593772,14.820331 9.2109402,14.617206 9.02344,14.460955 8.2265647,13.820331 7.6484393,12.937517 7.2890642,11.812516 6.9140644,10.656251 6.7265644,9.71875 6.7265644,9.000001 V 5.249998 c 0,-0.375 0.1562502,-0.789063 0.4687502,-1.242187 C 7.5078147,3.57031 7.914065,3.164059 8.4140652,2.789059 8.9296904,2.398434 9.4921906,2.085935 10.101566,1.85156 c 0.625001,-0.234376 1.250001,-0.351563 1.875001,-0.351563 0.640625,0 1.273438,0.117187 1.898439,0.351563 0.625,0.265624 1.1875,0.570311 1.6875,0.914062 0.500001,0.375 0.906251,0.78125 1.218751,1.218751 0.296875,0.4375 0.445313,0.859375 0.445313,1.265625 v 3.750003 c 0,0.718749 -0.164063,1.648437 -0.492189,2.789063 -0.343749,1.125001 -0.914062,2.015626 -1.710937,2.671876 -0.1875,0.156251 -0.335938,0.359376 -0.445313,0.609376 -0.109379,0.203125 -0.148437,0.453124 -0.117187,0.75 0.01562,0.265625 0.109379,0.5 0.281249,0.703125 0.156251,0.203125 0.351563,0.367188 0.585938,0.492188 0.843751,0.40625 -0.119438,-0.05998 1.568063,0.736891 1.075558,-1.099241 0,0 1.075558,-1.099241 -2.121292,-1.046744 0.110485,0.04972 -2.010807,-0.997026 0.515624,-0.375 0.953124,-0.867188 1.312499,-1.476563 0.343751,-0.59375 0.625002,-1.195313 0.843751,-1.804688 0.21875,-0.671876 0.375001,-1.273439 0.46875,-1.804688 0.09376,-0.59375 0.140626,-1.117189 0.140626,-1.570313 V 5.249998 c 0,-0.625 -0.195313,-1.25 -0.585938,-1.875001 -0.40625,-0.625 -0.921876,-1.1875 -1.546876,-1.6875 C 15.921881,1.171871 15.203132,0.765621 14.437506,0.468746 13.57813,0.156246 12.757818,-4e-6 11.976567,-4e-6 c -0.78125,0 -1.593751,0.15625 -2.4375013,0.46875 -0.7968753,0.3125 -1.5234382,0.71875 -2.1796885,1.218751 -0.6250004,0.5 -1.1406257,1.0625 -1.5468758,1.6875 C 5.4218762,3.999998 5.2265637,4.624998 5.2265637,5.249998 v 3.750003 c 0,0.484374 0.054687,0.976563 0.1640626,1.476562 0.09375,0.578126 0.2578126,1.187501 0.4921877,1.828127 0.1562501,0.499999 0.4453127,1.101562 0.8671879,1.804688 0.3593751,0.59375 0.7968754,1.101563 1.3125007,1.523438 -1.4687508,0.6875 -3.6640643,1.726563 -6.5859407,3.117189 -0.125,0.0625 -0.3671877,0.203125 -0.72656284,0.421875 C 0.25000012,19.48438 0,19.843756 0,20.250006 v 0.09375 0.140625 0.07031 0.09374 0.187501 0.09376 0.140625 0.164063 0.09376 0.117187 0.09374 0.117188 0.117187 0.140625 0.117188 0.07031 0.09374 0.140624 0.07031 0.09376 c 0,0.40625 0.14843757,0.757813 0.44531271,1.054689 C 0.72656284,23.851563 1.070313,24 1.4765632,24 H 16.47657 l -1.21875,-1.500001 z"
     style="fill:currentColor" />
  <g transform="matrix(0.00779727,0,0,-0.00779727,15.851852,21.493177)">
    <path style="fill:currentColor"
      d="m 984,910 q -25,25 -54,38 -26,13 -60,13 -50,0 -81,-22 -30,-20 -43,-33 -7,-6 -106,-106 L 423,583 210,370 113,273 q -2,-2 -3,-4 l -2,-2 q 0,-1 -1,-2 -1,-1 -1,-2 -1,-1 -2,-4 Q 100,239 86,194 83,185 73,150 63,120 58,100 33,20 32,16 21,-21 20,-22 q -1,-5 -1,-9 0,-5 1,-9 2,-9 9,-15 5,-5 10,-7 6,-3 12,-3 5,0 6,1 3,0 4,1 4,0 39,13 20,5 86,27 67,21 92,30 55,17 59,18 1,1 4,2 1,1 4,1 l 2,2 q 2,1 4,3 l 14,14 q 21,21 38,37 l 52,52 q 7,7 209,207 10,10 47,46 l 63,63 q 47,46 101,100 l 54,54 q 10,11 42,42 l 16,16 q 31,34 44,62 14,31 14,60 v 4 q -1,30 -16,62 -16,30 -45,58 z M 736,804 q 12,-3 38,-15 22,-10 56,-41 30,-30 41,-59 9,-25 11,-38 -26,-26 -53,-52 L 763,533 Q 633,405 613,385 l -87,-87 q -49,-48 -60,-59 l -63,-63 -31,-31 q -17,-16 -19,-18 -6,14 -21,40 -8,12 -34,42 -25,25 -49,40 -20,12 -45,23 l 113,113 149,149 q 34,35 150,151 l 67,67 q 27,26 53,52 z M 160,218 q 14,-3 39,-15 25,-13 53,-41 21,-21 32,-43 15,-31 16,-37 l -18,-6 q 0,0 -34,-12 -22,-7 -43,-14 -27,-9 -109,-36 2,6 17,54 l 10,30 q 6,17 7,22 22,67 30,98 z m 780,492 -1,-2 q -1,0 -1,-1 l -4,-4 q -8,22 -21,44 -15,25 -37,47 -21,21 -47,39 -25,15 -42,22 l 3,3 q 1,0 2,2 1,1 25,19 22,16 53,16 15,0 36,-8 16,-7 33,-24 24,-24 31,-38 10,-19 10,-37 0,-19 -10,-38 -11,-21 -30,-40 z" />
  </g>
</svg>
