<?xml version="1.0" encoding="UTF-8" standalone="no"?>
<svg xmlns="http://www.w3.org/2000/svg" height="24" width="24" viewBox="0 0 24 24" version="1.1">
  <g transform="matrix(0.01988401,0,0,-0.01988401,-0.5965203,21.554267)">
    <path style="fill:currentColor"
       d="m 412,941 q 47,19 98,19 51,0 98,-19 47,-17 86,-49 38,-29 62,-67 24,-37 24,-75 V 600 q 0,-23 -5,-63 -6,-38 -19,-73 -13,-35 -35,-71 -19,-32 -52,-58 87,-42 261,-125 59,-33 59,-59 V 60 Q 989,37 972,18 953,1 930,1 H 90 Q 66,1 47,18 30,37 30,60 v 10 13 26 42 q 0,0 60,59 88,42 263,125 -33,27 -53,61 -21,34 -35,72 -15,42 -19,73 -6,35 -6,59 v 150 q 0,37 23,75 24,38 62,68 37,30 87,48 z m 173,-55 q -39,14 -75,14 -37,0 -76,-14 -38,-15 -67,-37 -27,-20 -49,-49 -18,-27 -18,-50 V 600 q 0,-46 22,-112 22,-68 69,-106 12,-10 18,-24 7,-17 4,-31 -1,-14 -11,-27 -8,-11 -23,-20 -88,-41 -264,-124 -1,-1 -7,-4 -5,-3 -8,-5 -10,-7 -10,-26 V 60 q 210,0 839,1 v 58 q 0,23 -12,31 l -12,6 q -66,31 -262,123 -15,9 -23,20 -8,9 -12,28 -1,15 5,31 6,14 18,24 48,38 69,106 20,71 20,112 v 150 q 0,25 -19,51 -18,25 -48,48 -30,22 -68,37 z m 652,-172 q 0,-11 -8,-19 -8,-8 -19,-8 H 917 q -11,0 -19,8 -8,8 -8,19 0,11 8,18 8,8 19,8 h 293 q 11,0 19,-8 8,-7 8,-18 z m 0,-107 q 0,-11 -8,-19 -8,-8 -19,-8 H 917 q -11,0 -19,8 -8,8 -8,19 0,11 8,19 8,8 19,8 h 293 q 11,0 19,-8 8,-8 8,-19 z m 0,-107 q 0,-11 -8,-19 -8,-7 -19,-7 H 917 q -11,0 -19,7 -8,8 -8,19 0,11 8,19 8,8 19,8 h 293 q 11,0 19,-8 8,-8 8,-19 z" />
  </g>
</svg>
