<?xml version="1.0" encoding="UTF-8" standalone="no"?>
<svg
   xmlns:dc="http://purl.org/dc/elements/1.1/"
   xmlns:cc="http://creativecommons.org/ns#"
   xmlns:rdf="http://www.w3.org/1999/02/22-rdf-syntax-ns#"
   xmlns:svg="http://www.w3.org/2000/svg"
   xmlns="http://www.w3.org/2000/svg"
   xmlns:sodipodi="http://sodipodi.sourceforge.net/DTD/sodipodi-0.dtd"
   xmlns:inkscape="http://www.inkscape.org/namespaces/inkscape"
   height="24"
   width="24"
   viewBox="0 0 24 24"
   version="1.1"
   id="svg6"
   sodipodi:docname="marketplace.svg"
   inkscape:version="0.92.2 2405546, 2018-03-11">
  <metadata
     id="metadata12">
    <rdf:RDF>
      <cc:Work
         rdf:about="">
        <dc:format>image/svg+xml</dc:format>
        <dc:type
           rdf:resource="http://purl.org/dc/dcmitype/StillImage" />
      </cc:Work>
    </rdf:RDF>
  </metadata>
  <defs
     id="defs10" />
  <sodipodi:namedview
     pagecolor="#ffffff"
     bordercolor="#666666"
     borderopacity="1"
     objecttolerance="10"
     gridtolerance="10"
     guidetolerance="10"
     inkscape:pageopacity="0"
     inkscape:pageshadow="2"
     inkscape:window-width="799"
     inkscape:window-height="480"
     id="namedview8"
     showgrid="false"
     inkscape:zoom="1.7383042"
     inkscape:cx="-16.870056"
     inkscape:cy="26.432812"
     inkscape:window-x="0"
     inkscape:window-y="0"
     inkscape:window-maximized="0"
     inkscape:current-layer="svg6" />
  <g
     transform="matrix(0.02346041,0,0,-0.02339181,-0.02346041,22.479532)"
     id="g4">
    <path
       style="fill:currentColor"
       d="m 1023,17 -84,504 q -5,50 -44,84 -41,35 -88,35 h -71 v 85 q 0,51 -16,92 -17,43 -46,75 -30,31 -71,51 -41,18 -90,18 -49,0 -90,-18 -41,-20 -71,-51 -30,-30 -47,-75 -17,-46 -17,-92 V 640 H 211 Q 164,640 123,605 84,570 79,523 53,355 2,18 1,8 1,0 q 0,-10 2,-17 4,-17 14,-27 9,-10 23,-15 14,-6 31,-6 h 873 q 22,0 40,8 12,6 22,16 6,5 13,22 4,10 5,25 0,5 -1,11 z M 352,725 q 0,71 45,122 45,50 116,50 71,0 115,-50 44,-53 44,-122 V 640 H 352 Z M 947,0 Q 729,0 75,-1 q -4,0 -7,3 -3,1 -4,5 0,1 1,3 26,168 77,504 3,25 24,44 20,18 45,18 h 77 v -73 q -14,-9 -23,-23 -9,-15 -9,-32 0,-27 19,-45 18,-19 45,-19 27,0 46,19 18,18 18,45 0,17 -9,32 -9,14 -23,23 v 73 h 320 v -73 q -14,-9 -23,-23 -9,-15 -9,-32 0,-27 19,-45 18,-19 45,-19 27,0 46,19 18,18 18,45 0,17 -9,32 -9,14 -23,23 v 73 h 71 q 25,0 46,-18 20,-20 23,-46 Q 904,344 959,9 V 7 q 0,-2 -2,-4 -3,-3 -10,-3 z"
       id="path2"
       inkscape:connector-curvature="0" />
  </g>
</svg>
