<?xml version="1.0" encoding="UTF-8" standalone="no"?>
<svg xmlns="http://www.w3.org/2000/svg" height="24" width="24" viewBox="0 0 24 24" version="1.1">
  <g transform="matrix(0.0234375,0,0,-0.0234375,-0.46875,22.453125)">
    <path style="fill:currentColor"
       d="m 1044,668 q 0,17 -12,50 -12,33 -66,48 L 243,910 q -39,0 -67,-28 -29,-29 -29,-68 V 686 H 115 Q 76,685 48,657 20,629 20,590 V 574 559 548 516 503 492 462 445 430 418 383 367 354 316 300 251 211 190 163 78 q 0,-40 28,-68 28,-28 68,-28 h 832 q 40,0 68,28 28,28 28,68 z M 211,816 q 0,13 9,22 9,9 21,10 235,-48 706,-143 -1,-2 -6,-9 -5,-8 -21,-8 H 916 211 Z M 980,80 Q 980,67 971,58 961,48 948,48 H 116 Q 103,48 94,58 84,67 84,80 v 192 51 51 218 q 0,13 10,23 9,9 22,9 h 800 q 20,0 44,8 20,8 20,24 z M 212,398 q -27,0 -45,-19 -19,-19 -19,-45 0,-27 19,-45 18,-19 45,-19 26,0 45,19 19,18 19,45 0,26 -19,45 -19,19 -45,19 z" />
  </g>
</svg>
