<?xml version="1.0" encoding="UTF-8" standalone="no"?>
<svg xmlns="http://www.w3.org/2000/svg" version="1.1" viewBox="0 0 24 24" width="24" height="24">
  <g transform="matrix(0.0234375,0,0,-0.0234375,0,22.5)">
    <path style="fill:currentColor"
      d="m 64,65 q 0,19 11,27 12,8 16,10 94,44 281,133 15,8 25,21 10,13 12,29 2,19 -4,33 -7,13 -20,25 -50,41 -73,113 -24,74 -24,120 v 160 q 0,24 20,53 19,26 51,52 33,25 72,40 41,15 81,15 40,0 81,-15 41,-17 72,-39 32,-26 51,-52 20,-29 20,-54 V 576 q 0,-46 -21,-119 -22,-75 -74,-114 -12,-10 -19,-26 -6,-17 -5,-32 1,-17 12,-30 10,-13 25,-21 l 96,-45 16,64 q -21,10 -85,39 36,30 56,64 25,39 37,76 14,43 20,77 6,38 6,67 v 160 q 0,40 -25,80 -25,40 -66,72 -43,33 -92,52 -55,20 -105,20 -50,0 -104,-20 -51,-20 -93,-52 -41,-32 -66,-72 -25,-40 -25,-80 V 576 q 0,-26 6,-63 6,-37 21,-78 10,-32 37,-77 23,-38 57,-65 Q 251,249 64,160 56,156 32,142 0,122 0,96 V 92 86 83 79 71 67 61 54 50 45 41 36 31 25 20 17 13 7 4 0 Q 0,-26 19,-45 38,-64 64,-64 H 768 V 0 H 64 Z m 928,63 h -96 v 96 q 0,12 -9,23 -11,9 -23,9 -13,0 -22,-9 -10,-10 -10,-23 v -96 h -96 q -13,0 -22,-9 -10,-10 -10,-23 0,-13 10,-22 9,-10 22,-10 h 96 v -96 q 0,-13 10,-22 9,-10 22,-10 13,0 23,10 9,9 9,22 v 96 h 96 q 13,0 23,10 9,9 9,22 0,12 -9,23 -11,9 -23,9 z" />
  </g>
</svg>
