<?xml version="1.0" encoding="UTF-8" standalone="no"?>
<svg xmlns="http://www.w3.org/2000/svg" height="24" width="24" viewBox="0 0 24 24" version="1.1">
  <g transform="matrix(0.0234375,0,0,-0.02341463,0,22.501464)">
    <path style="fill:currentColor"
       d="m 746,125 q -50,28 -201,111 57,46 76,118 19,70 19,122 v 135 q 0,33 -20,68 -21,33 -54,60 -40,30 -77,44 -46,17 -88,17 -41,0 -87,-17 -45,-17 -78,-44 -34,-25 -55,-60 -21,-35 -21,-68 V 476 q 0,-47 22,-119 22,-75 79,-120 Q 192,200 54,125 47,121 27,109 0,92 0,71 V 67 62 57 54 50 46 41 35 32 28 25 21 17 14 12 8 2 -1 -5 -10 q 0,-23 16,-38 16,-16 38,-16 h 692 q 22,0 38,16 16,15 16,38 v 81 q 0,24 -27,39 z M 736,0 H 64 v 57 q 1,0 3,1 3,2 5,4 4,3 8,4 l 2,2 h 2 q 52,28 207,113 14,8 23,21 9,13 10,29 2,18 -4,31 -7,15 -19,25 -41,32 -59,92 -18,59 -18,97 v 135 q 0,35 55,80 54,45 122,45 71,0 123,-45 52,-45 52,-80 V 476 q 0,-38 -15,-97 -15,-60 -56,-92 -13,-10 -19,-25 -7,-12 -5,-31 1,-16 10,-29 11,-15 23,-22 L 715,69 q 0,-1 2,-1 1,0 2,-1 1,-1 2,-1 1,0 5,-2 2,-2 3,-2 4,-2 7,-5 z M 970,284 766,396 q 56,44 77,118 21,74 21,121 v 135 q 0,34 -21,68 -21,34 -55,61 -35,28 -77,45 -46,17 -89,17 -58,0 -113,-28 -55,-29 -90,-69 5,-1 21,-1 9,-1 20,-1 16,-1 40,-7 26,19 57,30 35,11 65,11 70,0 124,-45 54,-45 54,-81 V 635 q 0,-41 -16,-96 -17,-59 -58,-93 -13,-10 -19,-25 -7,-12 -5,-31 1,-16 10,-29 11,-15 23,-22 L 939,228 q 1,-1 4,-1 l 2,-2 q 0,0 4,-2 2,-1 4,-1 1,-1 4,-2 l 3,-3 V 160 H 831 q 13,-10 21,-27 8,-19 12,-37 h 106 q 22,0 38,16 16,15 16,38 v 80 q 0,24 -27,39 z"/>
  </g>
</svg>
