<svg viewBox="0 0 16 16" fill="currentColor">
  <path fill-rule="evenodd" d="M8 16a2 2 0 0 0 2-2H6a2 2 0 0 0 2 2z" />
  <path fill-rule="evenodd" d="M 8.0117188 0 A 1 1 0 0 0 7.0058594 1.0996094 C 6.0536148 1.2917252 5.2114673 1.7662793 4.5390625 2.4160156 L 5.234375 3.1113281 A 4.002 4.002 0 0 1 7.203125 2.078125 L 8 1.9179688 L 8.796875 2.0800781 A 4.002 4.002 0 0 1 12 6 C 12 6.628 12.133984 8.1971875 12.458984 9.7421875 C 12.513685 10.003119 12.584471 10.266773 12.652344 10.529297 L 14.373047 12.25 C 14.322922 12.164689 14.267668 12.09414 14.220703 12 C 13.320703 10.2 13 6.88 13 6 A 5.002 5.002 0 0 0 8.9941406 1.0996094 A 1 1 0 0 0 8.0117188 0 z M 3.890625 3.1835938 C 3.6937029 3.4703121 3.5352989 3.7836859 3.3984375 4.1074219 L 4.1640625 4.8710938 A 4.002 4.002 0 0 1 4.6015625 3.8925781 L 3.890625 3.1835938 z M 3.0703125 5.1933594 C 3.0258628 5.4558116 3 5.7243267 3 6 C 3 6.88 2.6792969 10.2 1.7792969 12 C 1.5562969 12.447 1.299 12.801 1 13 L 10.876953 13 L 9.8769531 12 L 2.8789062 12 C 3.1659062 11.308 3.3810156 10.509187 3.5410156 9.7421875 C 3.8537576 8.2554604 3.9823836 6.7865464 3.9921875 6.1152344 L 3.0703125 5.1933594 z M 11.291016 12 L 12.291016 13 L 13.708984 13 L 12.708984 12 L 11.291016 12 z " />
  <path fill-rule="evenodd" d="M 14.2,14.908 1,1.708 1.708,1 l 13.2,13.2 z" />
</svg>
