<svg viewBox="0 0 16 16" fill="currentColor">
  <path fill-rule="evenodd" d="M 0,1.5 C 0,1.2238576 0.22385763,1 0.5,1 H 2 c 0.2294852,6.34e-5 0.4294646,0.1563359 0.485,0.379 L 2.89,3 H 14.5 c 0.315376,1.904e-4 0.551814,0.2887412 0.49,0.598 l -1,5 c -0.04501,0.2243074 -0.236513,0.3894562 -0.465,0.401 L 4.128,9.471 4.415,11 H 13 c 0.666666,0 0.666666,1 0,1 H 4 C 3.7595117,11.999777 3.5532498,11.828382 3.509,11.592 L 2.01,3.607 1.61,2 H 0.5 C 0.22385763,2 0,1.7761424 0,1.5 Z M 5,12 c -2.6666655,0 -2.6666655,4 0,4 2.6666655,0 2.6666655,-4 0,-4 z m 7,0 c -2.6666655,0 -2.6666655,4 0,4 2.666666,0 2.666666,-4 0,-4 z m -7,1 c -1.3333328,0 -1.3333328,2 0,2 1.3333328,0 1.3333328,-2 0,-2 z m 7,0 c -1.333333,0 -1.333333,2 0,2 1.333333,0 1.333333,-2 0,-2 z" />
</svg>
