<svg viewBox="0 0 16 16" fill="currentColor">
  <path fill-rule="evenodd" d="M 15,15.708 0.146,0.854 0.854,0.146 15.708,15 Z" />
  <path fill-rule="evenodd" d="M 2.1416666,0 3.125,1 H 14 c 0.552285,0 1,0.4477153 1,1 v 8 c 0,0.552285 -0.447715,1 -1,1 h -0.876953 l 0.996094,0.996094 C 15.175422,11.933059 15.999813,11.05816 16,10 V 2 C 16,0.8954305 15.104569,0 14,0 10.04724,0.00274824 6.0943797,-0.00773181 2.1416666,0 Z M 0,2.125 v 12.667969 c 6.7834096e-5,0.44539 0.53854373,0.66842 0.85351562,0.353515 L 3.7070312,12.292969 C 3.8945367,12.105423 4.1488613,12.00004 4.4140625,12 h 5.4628906 l -1,-1 H 4.4140625 C 3.8836601,11.00008 3.3750109,11.210847 3,11.585938 l -2,2 V 3.125 Z M 10.292969,11 l 1,1 h 1.414062 l -1,-1 z" />
  <path fill-rule="evenodd" d="M 3.4882812 3 A 0.5 0.5 0 0 0 3 3.5 A 0.5 0.5 0 0 0 3.1308594 3.8359375 A 0.5 0.5 0 0 0 3.171875 3.8789062 A 0.5 0.5 0 0 0 3.5 4 L 4.7070312 4 L 3.7070312 3 L 3.5 3 A 0.5 0.5 0 0 0 3.4882812 3 z M 5.125 3 L 6.125 4 L 12.5 4 A 0.5 0.5 0 0 0 12.5 3 L 5.125 3 z M 4.7929688 5.5 L 5.7929688 6.5 L 7.2070312 6.5 L 6.2070312 5.5 L 4.7929688 5.5 z M 7.625 5.5 L 8.625 6.5 L 12.5 6.5 A 0.5 0.5 0 0 0 12.5 5.5 L 7.625 5.5 z M 3.3886719 5.5136719 A 0.5 0.5 0 0 0 3 6 A 0.5 0.5 0 0 0 3.5 6.5 L 4.375 6.5 L 3.3886719 5.5136719 z M 3.4882812 8 A 0.5 0.5 0 0 0 3 8.5 A 0.5 0.5 0 0 0 3.5 9 L 6.8769531 9 L 5.875 8 L 3.5 8 A 0.5 0.5 0 0 0 3.4882812 8 z M 7.2929688 8 L 8.2929688 9 L 8.5 9 A 0.5 0.5 0 0 0 8.8867188 8.1816406 A 0.5 0.5 0 0 0 8.8457031 8.1386719 A 0.5 0.5 0 0 0 8.5 8 L 7.2929688 8 z " />
</svg>
