<svg viewBox="0 0 16 16" fill="currentColor">
<path d="M 16,10.479908 V 9.1634137 c 0,0.8786833 -2.098807,1.5991833 -4.709445,1.6787853 v 1.317515 C 13.901193,12.080112 16,11.358592 16,10.479908 Z" />
<path d="M 16,8.0551091 V 6.7386146 c 0,0.8786835 -2.098807,1.5991836 -4.709445,1.6798061 v 1.317515 C 13.901193,9.6553132 16,8.9337926 16,8.0551091 Z" />
<path d="M 16,5.5782625 V 4.2617681 c 0,0.8786835 -2.098807,1.6002041 -4.709445,1.6798061 v 1.317515 C 13.901193,7.1774461 16,6.4559255 16,5.5782625 Z" />
<path d="M 10.785791,0 C 7.9570951,0 5.5715818,0.74703406 5.5715818,1.6787856 V 2.8166858 C 8.6425642,2.8370966 11.209792,3.6657737 11.306707,4.6740656 13.910278,4.5924225 15.99899,3.8709019 15.99899,2.9942595 V 1.7114428 1.6951142 C 16,0.76336267 13.614487,0 10.785791,0 Z" />
<path d="m 0,12.996556 c 0,0.931751 2.2431699,1.685929 5.0718657,1.685929 2.8276863,0 5.0193703,-0.754178 5.0193703,-1.685929 V 14.31305 C 10.091236,15.244802 7.9005615,16 5.0718657,16 2.2431699,16 0,15.245822 0,14.314071 Z" />
<path d="m 0,10.571757 c 0,0.931751 2.2431699,1.686949 5.0718657,1.686949 2.8276863,0 5.0193703,-0.755198 5.0193703,-1.686949 v 1.317515 c 0,0.931751 -2.1906745,1.68797 -5.0193703,1.68797 C 2.2431699,13.577242 0,12.822044 0,11.891313 Z" />
<path d="m 0,8.0949101 c 0,0.9317515 2.2431699,1.6859293 5.0718657,1.6859293 2.8276863,0 5.0193703,-0.7551984 5.0193703,-1.6859293 v 1.3164944 c 0,0.9317515 -2.1906745,1.6869495 -5.0193703,1.6869495 C 2.2431699,11.098354 0,10.344177 0,9.4124251 Z" />
<path d="m 10.091236,6.828422 c 0,0.9317515 -1.9917975,1.6869499 -4.8194838,1.6869499 C 2.4440659,8.5153719 0,7.7601735 0,6.8294425 V 5.5119275 C 0,4.580176 2.4905041,3.8259982 5.3191999,3.8259982 c 2.8286959,0 4.7720361,0.7551984 4.7720361,1.6869499 z" />
</svg>
