<svg fill="currentColor" viewBox="0 0 16 16">
  <path d="M 9.9277344 0 A 1.2806724 1.2806616 0 0 0 8.6601562 1.28125 A 1.2806724 1.2806616 0 0 0 9.9414062 2.5605469 A 1.2806724 1.2806616 0 0 0 11.222656 1.28125 A 1.2806724 1.2806616 0 0 0 9.9414062 0 A 1.2806724 1.2806616 0 0 0 9.9277344 0 z M 4.9960938 0.73242188 A 1.4636257 1.4636133 0 0 0 3.5917969 2.1953125 A 1.4636257 1.4636133 0 0 0 5.0566406 3.6582031 A 1.4636257 1.4636133 0 0 0 6.5195312 2.1953125 A 1.4636257 1.4636133 0 0 0 5.0566406 0.73242188 A 1.4636257 1.4636133 0 0 0 4.9960938 0.73242188 z M 13.550781 3.2929688 A 1.0311908 1.0311821 0 0 0 12.519531 4.3242188 A 1.0311908 1.0311821 0 0 0 13.550781 5.3554688 A 1.0311908 1.0311821 0 0 0 14.582031 4.3242188 A 1.0311908 1.0311821 0 0 0 13.550781 3.2929688 z M 2.1484375 5.3554688 A 1.5224369 1.522424 0 0 0 0.6328125 6.8789062 A 1.5224369 1.522424 0 0 0 2.1542969 8.4003906 A 1.5224369 1.522424 0 0 0 3.6777344 6.8789062 A 1.5224369 1.522424 0 0 0 2.1542969 5.3554688 A 1.5224369 1.522424 0 0 0 2.1484375 5.3554688 z M 13.023438 9.5800781 A 2.2120705 2.2120519 0 0 0 10.810547 11.792969 A 2.2120705 2.2120519 0 0 0 13.023438 14.003906 A 2.2120705 2.2120519 0 0 0 15.234375 11.792969 A 2.2120705 2.2120519 0 0 0 13.023438 9.5800781 z M 3.1621094 9.8789062 A 1.829532 1.8295166 0 0 0 1.3632812 11.708984 A 1.829532 1.8295166 0 0 0 3.1933594 13.539062 A 1.829532 1.8295166 0 0 0 5.0234375 11.708984 A 1.829532 1.8295166 0 0 0 3.1933594 9.8789062 A 1.829532 1.8295166 0 0 0 3.1621094 9.8789062 z M 7.7675781 11.908203 A 2.0457494 2.0457323 0 0 0 5.7207031 13.955078 A 2.0457494 2.0457323 0 0 0 7.7675781 16 A 2.0457494 2.0457323 0 0 0 9.8125 13.955078 A 2.0457494 2.0457323 0 0 0 7.7675781 11.908203 z " />
</svg>
