<svg viewBox="0 0 16 16" fill="currentColor">
  <path d="M 5 0 C 3.8954305 0 3 0.8954305 3 2 L 3 14 C 3 15.104569 3.8954305 16 5 16 L 11 16 C 12.104569 16 13 15.104569 13 14 L 13 2 C 13 0.8954305 12.104569 0 11 0 L 5 0 z M 9.09375 3.3007812 A 0.70157114 0.70156336 0 0 1 9.0996094 3.3007812 A 0.70157114 0.70156336 0 0 1 9.8007812 4.0019531 A 0.70157114 0.70156336 0 0 1 9.0996094 4.703125 A 0.70157114 0.70156336 0 0 1 8.3984375 4.0019531 A 0.70157114 0.70156336 0 0 1 9.09375 3.3007812 z M 6.390625 3.7011719 A 0.80179541 0.80178683 0 0 1 6.4238281 3.7011719 A 0.80179541 0.80178683 0 0 1 7.2265625 4.5019531 A 0.80179541 0.80178683 0 0 1 6.4238281 5.3046875 A 0.80179541 0.80178683 0 0 1 5.6210938 4.5019531 A 0.80179541 0.80178683 0 0 1 6.390625 3.7011719 z M 11.076172 5.1035156 A 0.56490135 0.56489534 0 0 1 11.640625 5.6679688 A 0.56490135 0.56489534 0 0 1 11.076172 6.234375 A 0.56490135 0.56489534 0 0 1 10.511719 5.6679688 A 0.56490135 0.56489534 0 0 1 11.076172 5.1035156 z M 4.8320312 6.234375 A 0.83401309 0.83400394 0 0 0 4.8339844 6.234375 A 0.83401309 0.83400394 0 0 1 5.6679688 7.0683594 A 0.83401309 0.83400394 0 0 1 4.8339844 7.9023438 A 0.83401309 0.83400394 0 0 1 4 7.0683594 A 0.83401309 0.83400394 0 0 1 4.8320312 6.234375 z M 10.787109 8.5488281 A 1.2118046 1.2117914 0 0 1 12 9.7597656 A 1.2118046 1.2117914 0 0 1 10.787109 10.970703 A 1.2118046 1.2117914 0 0 1 9.5761719 9.7597656 A 1.2118046 1.2117914 0 0 1 10.787109 8.5488281 z M 5.3867188 8.7109375 A 1.0022444 1.0022337 0 0 1 5.4023438 8.7109375 A 1.0022444 1.0022337 0 0 1 6.4042969 9.7148438 A 1.0022444 1.0022337 0 0 1 5.4023438 10.716797 A 1.0022444 1.0022337 0 0 1 4.4003906 9.7148438 A 1.0022444 1.0022337 0 0 1 5.3867188 8.7109375 z M 7.9082031 9.8242188 A 1.1206915 1.1206791 0 0 1 9.0292969 10.945312 A 1.1206915 1.1206791 0 0 1 7.9082031 12.064453 A 1.1206915 1.1206791 0 0 1 6.7890625 10.945312 A 1.1206915 1.1206791 0 0 1 7.9082031 9.8242188 z " />
</svg>
