<svg viewBox="0 0 16 16" fill="currentColor">
  <path d="M 2 2 C 0 2 0 4 0 4 L 0 10 C 0 12 2 12 2 12 L 6 12 C 6 12.667 5.917 13.167 5.75 13.5 L 5 13.5 A 0.5 0.5 0 0 0 5 14.5 L 11 14.5 A 0.5 0.5 0 0 0 11 13.5 L 10.25 13.5 C 10.083 13.167 10 12.667 10 12 L 14 12 C 16 12 16 10 16 10 L 16 4 C 16 2 14 2 14 2 L 2 2 z M 8.9472656 3.1992188 A 0.61272737 0.61267854 0 0 1 8.953125 3.1992188 A 0.61272737 0.61267854 0 0 1 9.5664062 3.8125 A 0.61272737 0.61267854 0 0 1 8.953125 4.4257812 A 0.61272737 0.61267854 0 0 1 8.3398438 3.8125 A 0.61272737 0.61267854 0 0 1 8.9472656 3.1992188 z M 6.5878906 3.5507812 A 0.7002599 0.70020406 0 0 1 6.6171875 3.5507812 A 0.7002599 0.70020406 0 0 1 7.3164062 4.25 A 0.7002599 0.70020406 0 0 1 6.6171875 4.9492188 A 0.7002599 0.70020406 0 0 1 5.9160156 4.25 A 0.7002599 0.70020406 0 0 1 6.5878906 3.5507812 z M 10.679688 4.7753906 A 0.49336492 0.49332559 0 0 1 11.173828 5.2695312 A 0.49336492 0.49332559 0 0 1 10.679688 5.7617188 A 0.49336492 0.49332559 0 0 1 10.1875 5.2695312 A 0.49336492 0.49332559 0 0 1 10.679688 4.7753906 z M 5.2246094 5.7617188 A 0.72839765 0.72833956 0 0 1 5.2285156 5.7617188 A 0.72839765 0.72833956 0 0 1 5.9570312 6.4902344 A 0.72839765 0.72833956 0 0 1 5.2285156 7.21875 A 0.72839765 0.72833956 0 0 1 4.5 6.4902344 A 0.72839765 0.72833956 0 0 1 5.2246094 5.7617188 z M 10.427734 7.7832031 A 1.0583473 1.0582629 0 0 1 11.486328 8.8417969 A 1.0583473 1.0582629 0 0 1 10.427734 9.9003906 A 1.0583473 1.0582629 0 0 1 9.3691406 8.8417969 A 1.0583473 1.0582629 0 0 1 10.427734 7.7832031 z M 5.7109375 7.9257812 A 0.87532482 0.87525507 0 0 1 5.7246094 7.9257812 A 0.87532482 0.87525507 0 0 1 6.6015625 8.8007812 A 0.87532482 0.87525507 0 0 1 5.7246094 9.6777344 A 0.87532482 0.87525507 0 0 1 4.8496094 8.8007812 A 0.87532482 0.87525507 0 0 1 5.7109375 7.9257812 z M 7.9140625 8.8964844 A 0.97877229 0.97869435 0 0 1 8.8925781 9.8769531 A 0.97877229 0.97869435 0 0 1 7.9140625 10.855469 A 0.97877229 0.97869435 0 0 1 6.9335938 9.8769531 A 0.97877229 0.97869435 0 0 1 7.9140625 8.8964844 z " />
</svg>
