<svg viewBox="0 0 16 16" fill="currentColor">
  <path d="M 12.72,12.312 C 12.512,11.672 11.912,11.2 11.2,11.2 H 10.4 V 8.8 C 10.4,8.3581722 10.041828,8 9.6,8 H 4.8 V 6.4 H 6.4 C 6.8418278,6.4 7.2,6.0418278 7.2,5.6 V 4 H 8.8 C 9.6836556,4 10.532685,3.2736372 10.4,2.4 L 10.253611,1.4361261 c 2.344,0.944 4.809428,3.8655006 4.809428,6.5535006 0,1.664 -1.000653,3.7262423 -2.040653,4.8622423 m -5.7240471,2.052204 c -3.16,-0.392 -6.1431897,-3.324912 -6.2427667,-6.5873924 C 1.0403176,7.8168862 1.0486578,6.6456675 1.3791248,6.2459985 L 5.6,10.4 v 0.8 c 0,0.883656 0.7163444,1.6 1.6,1.6 M 8,0 C 3.581722,0 0,3.581722 0,8 c 0,4.418278 3.581722,8 8,8 4.418278,0 8,-3.581722 8,-8 C 16,3.581722 12.418278,0 8,0 Z" />
</svg>
