<svg viewBox="0 0 16 16" fill="currentColor">
  <path fill-rule="evenodd" d="M 1.9511719 2 A 2 2 0 0 0 1.3886719 2.0957031 L 2.2929688 3 L 3.7070312 3 L 2.7070312 2 L 2 2 A 2 2 0 0 0 1.9511719 2 z M 4.1230469 2 L 5.1230469 3 L 14 3 A 1 1 0 0 1 15 4 L 15 4.2167969 L 9.5878906 7.4648438 L 10.316406 8.1933594 L 15 5.3828125 L 15 5.3847656 L 15 11.113281 L 10.542969 8.4199219 L 13.496094 11.373047 L 14.966797 12.261719 A 1 1 0 0 1 14.765625 12.642578 L 15.474609 13.351562 A 2 2 0 0 0 16 12 L 16 4 A 2 2 0 0 0 14 2 L 4.1230469 2 z M 0.52734375 2.6503906 A 2 2 0 0 0 0 4 L 0 12 A 2 2 0 0 0 2 14 L 11.876953 14 L 10.876953 13 L 2 13 A 1 1 0 0 1 1.0332031 12.259766 L 6.7089844 8.8320312 L 3.7363281 5.859375 L 1 4.2167969 L 1 4 A 1 1 0 0 1 1.234375 3.3574219 L 0.52734375 2.6503906 z M 1 5.3828125 L 5.7578125 8.2382812 L 1 11.113281 L 1 5.3828125 z M 7.2773438 7.984375 L 8.546875 9.2539062 L 9.2714844 8.8203125 L 9.9179688 9.2109375 L 8.703125 7.9960938 L 8 8.4179688 L 7.2773438 7.984375 z M 12.292969 13 L 13.292969 14 L 14 14 A 2 2 0 0 0 14.611328 13.904297 L 13.707031 13 L 12.292969 13 z " />
  <path fill-rule="evenodd" d="M 14.5,15.207999 0.5,1.208 1.208,0.5 l 14,13.999999 z" />
</svg>
