<svg width="16" height="16" fill="currentColor" class="ci ci-grid2" viewBox="0 0 16 16" version="1.1">
  <path fill-rule="evenodd" d="M 0,2.5 C 0,1.6715729 0.6715729,1 1.5,1 H 6 C 6.8284271,1 7.5,1.6715729 7.5,2.5 V 6 C 7.5,6.8284271 6.8284271,7.5 6,7.5 H 1.5 C 0.6715729,7.5 0,6.8284271 0,6 Z M 1.5,2 C 1.2238576,2 1,2.2238576 1,2.5 V 6 C 1,6.2761424 1.2238576,6.5 1.5,6.5 H 6 C 6.2761424,6.5 6.5,6.2761424 6.5,6 V 2.5 C 6.5,2.2238576 6.2761424,2 6,2 Z m 7,0.5 C 8.5,1.6715729 9.1715729,1 10,1 h 4.5 C 15.328427,1 16,1.6715729 16,2.5 V 6 c 0,0.8284271 -0.671573,1.5 -1.5,1.5 H 10 C 9.1715729,7.5 8.5,6.8284271 8.5,6 Z M 10,2 C 9.7238576,2 9.5,2.2238576 9.5,2.5 V 6 c 0,0.2761424 0.2238576,0.5 0.5,0.5 h 4.5 C 14.776142,6.5 15,6.2761424 15,6 V 2.5 C 15,2.2238576 14.776142,2 14.5,2 Z M 0,10 C 0,9.1715729 0.6715729,8.5 1.5,8.5 H 6 c 0.8284271,0 1.5,0.6715729 1.5,1.5 v 3.5 C 7.5,14.328427 6.8284271,15 6,15 H 1.5 C 0.6715729,15 0,14.328427 0,13.5 Z M 1.5,9.5 C 1.2238576,9.5 1,9.7238576 1,10 v 3.5 C 1,13.776142 1.2238576,14 1.5,14 H 6 c 0.2761424,0 0.5,-0.223858 0.5,-0.5 V 10 C 6.5,9.7238576 6.2761424,9.5 6,9.5 Z m 7,0.5 C 8.5,9.1715729 9.1715729,8.5 10,8.5 h 4.5 c 0.828427,0 1.5,0.6715729 1.5,1.5 v 3.5 C 16,14.328427 15.328427,15 14.5,15 H 10 C 9.1715729,15 8.5,14.328427 8.5,13.5 Z M 10,9.5 C 9.7238576,9.5 9.5,9.7238576 9.5,10 v 3.5 c 0,0.276142 0.2238576,0.5 0.5,0.5 h 4.5 C 14.776142,14 15,13.776142 15,13.5 V 10 C 15,9.7238576 14.776142,9.5 14.5,9.5 Z" />
</svg>
