<svg viewBox="0 0 16 16" fill="currentColor">
  <path fill-rule="evenodd" d="M 4,2 H 2 V 4 H 4 Z M 5,14 V 12 C 5,11.447715 4.5522847,11 4,11 H 2 c -0.5522847,0 -1,0.447715 -1,1 v 2 c 0,0.552285 0.4477153,1 1,1 h 2 c 0.5522847,0 1,-0.447715 1,-1 z M 5,9 V 7 C 5,6.4477153 4.5522847,6 4,6 H 2 C 1.4477153,6 1,6.4477153 1,7 v 2 c 0,0.5522847 0.4477153,1 1,1 H 4 C 4.5522847,10 5,9.5522847 5,9 Z M 5,4 V 2 C 5,1.4477153 4.5522847,1 4,1 H 2 C 1.4477153,1 1,1.4477153 1,2 V 4 C 1,4.5522847 1.4477153,5 2,5 H 4 C 4.5522847,5 5,4.5522847 5,4 Z M 4,7 H 2 v 2 h 2 z m 0,5 H 2 v 2 h 2 z" />
  <path fill-rule="evenodd" d="M 6,3 C 6,3.2761424 6.223854,3.5 6.4999911,3.5 H 14.5 c 0.666988,0 0.666988,-1 0,-1 H 6.4999911 C 6.223854,2.5 6,2.7238576 6,3 Z" />
  <path fill-rule="evenodd" d="M 6,8 C 6,8.2761424 6.223854,8.5 6.4999911,8.5 H 14.5 c 0.666988,0 0.666988,-1 0,-1 H 6.4999911 C 6.223854,7.5 6,7.7238576 6,8 Z" />
  <path fill-rule="evenodd" d="m 6,13 c 0,0.276142 0.223854,0.5 0.4999911,0.5 H 14.5 c 0.666988,0 0.666988,-1 0,-1 H 6.4999911 C 6.223854,12.5 6,12.723858 6,13 Z" />
</svg>
