<svg viewBox="0 0 16 16" fill="currentColor">
<path d="M 8.0368911,3.1409228 C 5.8372192,5.4169073 3.6375472,7.6928918 1.4378752,9.968876 c -0.47605602,0 -0.95211102,0 -1.42816602,0 0.03817,-0.2452501 -0.07738,-0.5563815 0.05892,-0.7595748 C 2.7117522,6.4744846 5.3548722,3.739668 7.9979916,1.0048515 c 2.6627614,2.7551391 5.3255214,5.5102783 7.9882824,8.2654174 -0.05398,0.2057558 0.109427,0.6364424 -0.08333,0.6986071 -0.422346,0 -0.844692,0 -1.267037,0 C 12.436235,7.6928918 10.236563,5.4169073 8.0368911,3.1409228 Z" />
<path d="m 9.0399417,11.40634 c -0.6946334,0 -1.3892667,0 -2.0839,0 0,1.197887 0,2.395773 0,3.59366 -1.4920725,0 -2.9841445,0 -4.4762165,0 0,-1.670333 0,-3.340666 0,-5.0109995 1.852355,-1.9166182 3.7047106,-3.8332367 5.5570659,-5.7498553 1.8523555,1.9166186 3.7047109,3.8332371 5.5570659,5.7498553 0,1.6703335 0,3.3406665 0,5.0109995 -1.518005,0 -3.03601,0 -4.5540153,0 0,-1.197887 0,-2.395773 0,-3.59366 z" />
<path d="M 12.899324,5.3172432 V 1 h -2.0839 v 2.1610473 z" />
</svg>
