<svg width="16" height="16" fill="currentColor" class="ci ci-house-door2" viewBox="0 0 16 16" version="1.1">
  <path fill-rule="evenodd" d="m 7.646,0.6468938 c 0.1953639,-0.1958584 0.5126361,-0.1958584 0.708,0 l 6,5.50025 c 0.09371,0.093951 0.146237,0.2213011 0.146,0.354 v 7.0005002 c 0,0.276142 -0.223858,0.5 -0.5,0.5 h -4 c -0.2761424,0 -0.4930986,-0.223944 -0.5,-0.5 v -4.5 h -3 v 4.5 c 0,0.276142 -0.2238576,0.5 -0.5,0.5 H 2 c -0.2761424,0 -0.5,-0.223858 -0.5,-0.5 V 6.5011438 c -2.37e-4,-0.1326989 0.052286,-0.2600493 0.146,-0.354 z M 2.5,6.7081438 v 6.2935002 h 3 v -4.5 C 5.5,8.2255014 5.7238576,8.0016438 6,8.0016438 h 4 c 0.276142,0 0.5,0.2238577 0.5,0.5000002 v 4.5 h 3 V 6.7081438 L 8,1.7078938 Z" />
  <path fill-rule="evenodd" d="m 13,2.0013938 v 3.5 l -2,-1.9 v -1.6 c 0,-0.2761424 0.223858,-0.5 0.5,-0.5 h 1 c 0.276142,0 0.5,0.2238576 0.5,0.5 z" />
</svg>
