<svg viewBox="0 0 16 16" fill="currentColor">
  <path d="M2.208 14.208l12-12L13.5 1.5l-12 12 .708.708zM11.621 8.224L8.256 11.53c1.123.893 2.956.44 3.544-.876.381-.766.31-1.729-.179-2.43zm.316-.868c1.237 1.218 1.176 3.444-.126 4.591-1.214 1.191-3.384 1.112-4.481-.198-.216-.411.284-.66.504-.922C9.042 9.65 10.23 8.45 11.45 7.29a.395.395 0 01.486.066zm2.148 6.83c-.275.275-.611-.006-.788-.244-.316-.365-.718-.668-.974-1.075-.145-.403.446-.713.693-.367.379.417.81.795 1.156 1.238a.405.405 0 01-.087.448zm-8.973-.128c-.272-.277.006-.617.242-.796.361-.319.661-.725 1.064-.983.4-.147.706.45.363.699-.413.383-.787.818-1.225 1.168a.395.395 0 01-.444-.088zm7.393-7.26c-.271-.278.007-.619.242-.797.362-.319.662-.725 1.065-.984.399-.147.706.45.362.7-.412.383-.786.818-1.224 1.168a.395.395 0 01-.445-.088zM9.572 16c-.386-.002-.428-.441-.386-.736.03-.483-.036-.984.061-1.456.176-.4.825-.192.75.236-.024.566.015 1.14-.05 1.7a.398.398 0 01-.375.256zm4.056-6.354c.002-.39.437-.432.728-.39.465.024.94-.021 1.398.048.418.147.247.837-.19.77-.56-.023-1.129.017-1.683-.049a.402.402 0 01-.253-.379zM3.884 8.009c.528-1.165.965-2.549 2.207-3.149.64-.354 1.319-.632 1.987-.929-1.112-.897-2.839-.757-3.824.263-1.05.975-1.238 2.655-.37 3.815zM3.49 9.08c-1.092-1.044-1.526-2.748-.904-4.15.741-1.867 2.978-3.138 4.936-2.436.673.25 1.33.658 1.749 1.246.168.797-1.042.793-1.493 1.194C6.74 5.419 5.722 6.08 5.185 7.13c-.437.659-.648 1.486-1.144 2.08a.52.52 0 01-.55-.13z"/>
</svg>