<svg viewBox="0 0 16 16" fill="currentColor">
  <path fill-rule="evenodd" d="M 4.7929688 5.5 L 5.640625 6.3476562 C 5.8240975 6.0656612 6.0369613 5.8046758 6.2832031 5.5761719 L 6.2070312 5.5 L 4.7929688 5.5 z M 3.4296875 5.5546875 A 3 3 0 0 0 4 11.5 L 7 11.5 A 3 3 0 0 0 8.7851562 10.910156 L 8.0664062 10.191406 A 2 2 0 0 1 7 10.5 L 4 10.5 A 2 2 0 0 1 4 6.5 L 4.375 6.5 L 3.4296875 5.5546875 z M 9.625 7.5 L 9.9160156 7.7910156 A 3 3 0 0 0 9.8300781 7.5 L 9.625 7.5 z M 8.9882812 8.28125 A 2 2 0 0 1 8.7539062 9.4609375 L 9.4804688 10.1875 A 3 3 0 0 0 9.9160156 9.2089844 L 8.9882812 8.28125 z " />
  <path fill-rule="evenodd" d="M 9 5.5 A 3 3 0 0 0 7.8515625 5.7265625 L 8.65625 6.53125 A 2 2 0 0 1 9 6.5 L 12 6.5 A 2 2 0 0 1 12.546875 10.421875 L 13.318359 11.193359 A 3 3 0 0 0 12 5.5 L 9 5.5 z M 6.984375 6.2773438 A 3 3 0 0 0 6.3632812 7.0703125 L 7.1191406 7.8261719 A 2 2 0 0 1 7.6933594 6.9863281 L 6.984375 6.2773438 z M 6.0195312 8.1445312 A 3 3 0 0 0 6.1699219 9.5 L 7.2675781 9.5 A 2 2 0 0 1 7.1621094 9.2871094 L 6.0195312 8.1445312 z M 10.464844 10.5 A 4.02 4.02 0 0 1 10.195312 10.902344 L 10.792969 11.5 L 12 11.5 A 3 3 0 0 0 12.199219 11.492188 L 11.207031 10.5 L 10.464844 10.5 z " />
  <path fill-rule="evenodd" d="M13.646 14.354l-12-12 .708-.708 12 12-.708.708z" />
</svg>
