<svg width="16" height="16" fill="currentColor" class="ci ci-login2" viewBox="0 0 16 16" version="1.1">
  <path fill-rule="evenodd" d="M 5,3 C 5,2.7238576 5.223858,2.5 5.5,2.5 H 13 c 0.276142,0 0.5,0.2238576 0.5,0.5 v 10 c 0,0.276142 -0.223858,0.5 -0.5,0.5 H 5.5 C 5.223858,13.5 5,13.276142 5,13 V 10.5 C 5,9.8333336 4,9.8333336 4,10.5 V 13 c 0,0.828427 0.671573,1.5 1.5,1.5 H 13 c 0.828427,0 1.5,-0.671573 1.5,-1.5 V 3 C 14.5,2.1715729 13.828427,1.5 13,1.5 H 5.5 C 4.671573,1.5 4,2.1715729 4,3 v 2.5 c 0,0.6666664 1,0.6666664 1,0 z" />
  <path fill-rule="evenodd" d="m 11.854,8.354 a 0.5,0.5 0 0 0 0,-0.708 l -3,-3 A 0.5006316,0.5006316 0 1 0 8.146,5.354 L 10.293,7.5 H 1.5 a 0.5,0.5 0 0 0 0,1 h 8.793 l -2.147,2.146 a 0.5006316,0.5006316 0 0 0 0.708,0.708 z" />
</svg>
