<svg width="16" height="16" fill="currentColor" class="ci ci-logout2" viewBox="0 0 16 16" version="1.1">
  <path fill-rule="evenodd" d="M 9.5,3 C 9.5,2.7238576 9.276142,2.5 9,2.5 H 1.5 C 1.223858,2.5 1,2.7238576 1,3 v 10 c 0,0.276142 0.223858,0.5 0.5,0.5 H 9 c 0.276142,0 0.5,-0.223858 0.5,-0.5 v -2.5 c 0,-0.6666664 1,-0.6666664 1,0 V 13 c 0,0.828427 -0.671573,1.5 -1.5,1.5 H 1.5 C 0.671573,14.5 0,13.828427 0,13 V 3 C 0,2.1715729 0.671573,1.5 1.5,1.5 H 9 c 0.828427,0 1.5,0.6715729 1.5,1.5 v 2.5 c 0,0.6666664 -1,0.6666664 -1,0 z" />
  <path fill-rule="evenodd" d="m 15.854,8.354 a 0.5,0.5 0 0 0 0,-0.708 l -3,-3 A 0.5006316,0.5006316 0 1 0 12.146,5.354 L 14.293,7.5 H 5.5 a 0.5,0.5 0 0 0 0,1 h 8.793 l -2.147,2.146 a 0.5006316,0.5006316 0 0 0 0.708,0.708 z" />
</svg>
