<svg viewBox="0 0 16 16" fill="currentColor">
  <path fill-rule="evenodd" d="M14 1H2a1 1 0 0 0-1 1v12a1 1 0 0 0 1 1h12a1 1 0 0 0 1-1V2a1 1 0 0 0-1-1zM2 0a2 2 0 0 0-2 2v12a2 2 0 0 0 2 2h12a2 2 0 0 0 2-2V2a2 2 0 0 0-2-2H2z" />
  <path fill-rule="evenodd" d="m 10,4.9999999 a 2,2 0 1 1 -4,0 2,2 0 0 1 4,0 z m -2,3 A 3,3 0 1 0 8,2.0000001 3,3 0 0 0 8,7.9999999 Z M 14,13 c 0,1 -1,1 -1,1 H 3 c 0,0 -1,0 -1,-1 0,-1 1,-4 6,-4 5,0 6,3 6,4 z M 13,12.996 C 12.999,12.75 12.846,12.01 12.168,11.332 11.516,10.68 10.289,10 8,10 5.71,10 4.484,10.68 3.832,11.332 3.154,12.01 3.002,12.75 3,12.996 Z" />
</svg>
