<svg viewBox="0 0 16 16" fill="currentColor" class="ci ci-person-circle-outline">
  <path fill-rule="evenodd" d="m 7.8556664,10.099 c -3.202848,0 -4.6469204,1.102592 -5.3556664,2.250346 0.219923,0.274192 0.460186,0.53143 0.71875,0.769531 0.127033,-0.25903 0.1929614,-0.41186 0.4689474,-0.687846 0.652,-0.652 1.877969,-1.332031 4.167969,-1.332031 2.2889996,0 3.5159686,0.680031 4.1679686,1.332031 0.275985,0.275986 0.572803,0.548838 0.699966,0.807868 0.258564,-0.238101 0.366866,-0.486068 0.586789,-0.76026 C 12.601643,11.330885 11.058514,10.099 7.8556664,10.099 Z m 5.9042966,3.400391 c -16.5186749,-0.292572 -8.2593376,-0.146286 0,0 z" />
  <path fill-rule="evenodd" d="M 9.9999997,6 C 10.001033,8.6676979 6.0010332,8.6676979 6,6 6.0010324,3.3343677 10.001032,3.3343677 9.9999997,6 Z M 8,9 C 11.999998,9 11.999998,3 8,3 4.0000017,3 4.0000017,9 8,9 Z" />
  <circle style="fill:none;stroke:currentColor;stroke-width:1px" cx="8" cy="8" r="7.5" />
</svg>
