<svg viewBox="0 0 16 16" fill="currentColor" class="ci ci-person-square-outline" version="1.1">
  <path fill-rule="evenodd" d="m 7.8557525,10.454188 c -3.2028935,0 -5.912135,2.330824 -6.0229752,3.960071 0.2199261,0.274192 0.5590304,0.171394 0.8175981,0.409495 1.1203172,-2.542951 3.1062088,-3.346191 5.2053771,-3.369566 3.0793475,0.04237 4.9499085,1.674882 5.5579435,3.457864 0.764605,-0.461766 0.103135,0.141857 0.704081,-0.345631 -0.05096,-2.052076 -3.059131,-4.112233 -6.2620245,-4.112233 z" style="stroke-width:1" />
  <path fill-rule="evenodd" d="m 13.5,1.5 h -11 c -0.5522847,0 -1,0.4477153 -1,1 v 11 c 0,0.552285 0.4477153,1 1,1 h 11 c 0.552285,0 1,-0.447715 1,-1 v -11 c 0,-0.5522847 -0.447715,-1 -1,-1 z m -11,-1 c -1.1045695,0 -2,0.8954305 -2,2 v 11 c 0,1.104569 0.8954305,2 2,2 h 11 c 1.104569,0 2,-0.895431 2,-2 v -11 c 0,-1.1045695 -0.895431,-2 -2,-2 z" />
  <path fill-rule="evenodd" d="m 10.000116,6.3551885 c 10e-4,2.6676978 -3.999023,2.6676978 -4.000056,0 9.987e-4,-2.6656324 4.001088,-2.6656324 4.000056,0 z M 8.0000881,9.3551884 c 4.0000539,0 4.0000539,-6 0,-6 -4.0000558,0 -4.0000558,6 0,6 z" style="stroke-width:1" />
</svg>
