<svg viewBox="0 0 16 16" fill="currentColor">
  <path fill-rule="evenodd" d="m 8.012891,10.099 c -3.202848,0 -4.754145,1.229199 -5.462891,2.376953 0.219923,0.274192 0.460186,0.53143 0.71875,0.769531 0.127033,-0.25903 0.300186,-0.538467 0.576172,-0.814453 0.652,-0.652 1.877969,-1.332031 4.167969,-1.332031 2.289,0 3.515969,0.680031 4.167969,1.332031 0.275985,0.275986 0.449009,0.555423 0.576172,0.814453 0.258564,-0.238101 0.498827,-0.495339 0.71875,-0.769531 C 12.767035,11.328199 11.215739,10.099 8.012891,10.099 Z m 5.904297,3.400391 c -16.5186753,-0.292572 -8.259338,-0.146286 0,0 z" />
  <path fill-rule="evenodd" d="M8 1a7 7 0 1 0 0 14A7 7 0 0 0 8 1zM0 8a8 8 0 1 1 16 0A8 8 0 0 1 0 8z" />
  <path fill-rule="evenodd" d="M 9.9999997,6 C 10.001033,8.6676979 6.0010332,8.6676979 6,6 6.0010324,3.3343677 10.001032,3.3343677 9.9999997,6 Z M 8,9 C 11.999998,9 11.999998,3 8,3 4.0000017,3 4.0000017,9 8,9 Z" />
</svg>
