<svg fill="currentColor" class="ci ci-phone-slash" viewBox="0 0 16 16">
  <path fill-rule="evenodd" d="M 5 0 A 2 2 0 0 0 3.2128906 1.1347656 L 4.0136719 1.9355469 A 1 1 0 0 1 5 1 L 11 1 A 1 1 0 0 1 12 2 L 12 9.9199219 L 13 10.919922 L 13 2 A 2 2 0 0 0 11 0 L 5 0 z M 3 2.3378906 L 3 3.6621094 L 4 4.6621094 L 4 3.3378906 L 3 2.3378906 z M 3 5.0800781 L 3 14 A 2 2 0 0 0 5 16 L 11 16 A 2 2 0 0 0 12.787109 14.865234 L 11.986328 14.064453 A 1 1 0 0 1 11 15 L 5 15 A 1 1 0 0 1 4 14 L 4 6.0800781 L 3 5.0800781 z M 12 11.337891 L 12 12.662109 L 13 13.662109 L 13 12.337891 L 12 11.337891 z " />
  <path fill-rule="evenodd" d="M8 14a1 1 0 1 0 0-2 1 1 0 0 0 0 2z"/>
  <path fill-rule="evenodd" d="M 15.073,15.781 0.21900027,0.9270003 l 0.708,-0.708 L 15.781,15.073 Z" />
</svg>
