<svg viewBox="0 0 16 16" fill="currentColor">
  <path fill-rule="evenodd" d="M1.5 1a.5.5 0 00-.5.5v3a.5.5 0 01-1 0v-3A1.5 1.5 0 011.5 0h3a.5.5 0 010 1h-3zM11 .5a.5.5 0 01.5-.5h3A1.5 1.5 0 0116 1.5v3a.5.5 0 01-1 0v-3a.5.5 0 00-.5-.5h-3a.5.5 0 01-.5-.5zM.5 11a.5.5 0 01.5.5v3a.5.5 0 00.5.5h3a.5.5 0 010 1h-3A1.5 1.5 0 010 14.5v-3a.5.5 0 01.5-.5zm15 0a.5.5 0 01.5.5v3a1.5 1.5 0 01-1.5 1.5h-3a.5.5 0 010-1h3a.5.5 0 00.5-.5v-3a.5.5 0 01.5-.5z" />
  <path d="M3 3h3.75v3.75H3V3m10 0v3.75H9.25V3H13M9.25 9.875h1.25v-1.25H9.25v-1.25h1.25v1.25h1.25v-1.25H13v1.25h-1.25v1.25H13v1.875h-1.25V13H10.5v-1.25H8.625V13h-1.25v-2.5H9.25v-.625m1.25 0v1.875h1.25V9.875H10.5M3 13V9.25h3.75V13H3m1.25-8.75V5.5H5.5V4.25H4.25m6.25 0V5.5h1.25V4.25H10.5M4.25 10.5v1.25H5.5V10.5H4.25M3 7.375h1.25v1.25H3v-1.25m3.125 0h2.5v2.5h-1.25v-1.25h-1.25v-1.25m1.25-3.125h1.25v2.5h-1.25v-2.5" />
</svg>
