<svg viewBox="0 0 16 16" fill="currentColor">
  <path fill-rule="evenodd" d="m 11.855273,7.6566847 c -0.496361,0.467306 -1.167055,0.7546306 -1.9007011,0.7546306 -0.7352603,0 -1.402725,-0.2865175 -1.9007005,-0.7546306 -0.4979755,0.467306 -1.1662472,0.7546306 -1.9007006,0.7546306 -0.7344532,0 -1.4027251,-0.2865175 -1.8998934,-0.7546306 -0.4971684,0.467306 -1.1662473,0.7546306 -1.9007006,0.7546306 -0.2800608,0 -0.5455939,-0.054075 -0.8006348,-0.1315559 v 6.7393476 h 8.0709153 v 0 h 2.4212747 v 0 h 2.421274 V 8.3072004 c -0.228407,0.061339 -0.464077,0.1041149 -0.711854,0.1041149 -0.73284,0 -1.401919,-0.2873246 -1.898279,-0.7546306 z M 8.666,9.6758055 l 4.236,3.89e-4 V 12.597026 L 8.666,12.596637 Z M 3.795,14 V 9.6 h 3.01 V 14 Z" />
  <path fill-rule="evenodd" d="M 2.97,1.35 C 3.160003,1.1278622 3.437688,0.9999808 3.73,1 h 8.54 c 0.292311,-1.92e-5 0.569997,0.1278622 0.76,0.35 l 2.609,2.344 C 15.871943,3.9658322 15.999987,4.3120121 16,4.67 V 4.925 C 16.000249,7.186737 13.138218,8.1685819 11.75,6.383 11.300393,6.9621209 10.608162,7.3006681 9.875,7.3 9.141803,7.3008198 8.449509,6.9622417 8,6.383 7.550491,6.9622417 6.858197,7.3008198 6.125,7.3 5.391803,7.3008198 4.699509,6.9622417 4.25,6.383 2.861781,8.1685819 -2.4998362e-4,7.186737 1.637716e-8,4.925 V 4.67 C 1.3016377e-5,4.3120121 0.12805702,3.9658322 0.36100002,3.694 L 2.971,1.349 Z" />
</svg>
