<svg width="16" height="16" fill="currentColor" class="ci ci-shop2" viewBox="0 0 16 16" version="1.1">
  <path fill-rule="evenodd" d="M 2.97,0.85 C 3.1600027,0.62786225 3.4376882,0.49998077 3.73,0.5 h 8.54 c 0.292312,-1.923e-5 0.569997,0.12786225 0.76,0.35 l 2.609,3.044 C 15.871943,4.1658322 15.999987,4.5120121 16,4.87 V 5.125 C 16.00025,7.386737 13.138219,8.3685819 11.75,6.583 11.300393,7.1621209 10.608162,7.5006681 9.875,7.5 9.1418028,7.5008198 8.4495085,7.1622417 8,6.583 7.5504915,7.1622417 6.8581972,7.5008198 6.125,7.5 5.3918028,7.5008198 4.6995085,7.1622417 4.25,6.583 2.8617811,8.3685819 -2.4954805e-4,7.386737 0,5.125 V 4.87 C 1.2593072e-5,4.5120121 0.12805661,4.1658322 0.361,3.894 l 2.61,-3.045 z m 1.78,4.275 c 0,1.8333325 2.75,1.8333325 2.75,0 0,-0.6666664 1,-0.6666664 1,0 0,1.8333325 2.75,1.8333325 2.75,0 0,-0.6666664 1,-0.6666664 1,0 0,1.8333325 2.75,1.8333325 2.75,0 V 4.87 c 9e-6,-0.1191723 -0.04255,-0.2344291 -0.12,-0.325 L 12.27,1.5 H 3.73 L 1.12,4.545 C 1.0425472,4.6355709 0.99999083,4.7508277 1,4.87 v 0.255 c 0,1.8333325 2.75,1.8333325 2.75,0 0,-0.6666664 1,-0.6666664 1,0 z M 1,8 c 0.2761424,0 0.4953983,0.223896 0.5,0.5 v 6 H 3 v -5 c 0,-0.5522847 0.4477153,-1 1,-1 h 3 c 0.5522847,0 1,0.4477153 1,1 v 5 h 6.5 v -6 c 0,-0.6666664 1,-0.6666664 1,0 v 6 h 0 c 0.666666,0 0.666666,1 0,1 h -15 c -0.66666638,0 -0.66666638,-1 0,-1 h 0 v -6 C 0.5,8.2238576 0.72385763,8 1,8 Z m 3,6.5 h 3 v -5 H 4 Z m 5,-5 c 0,-0.5522847 0.4477153,-1 1,-1 h 2 c 0.552285,0 1,0.4477153 1,1 v 3 c 0,0.552285 -0.447715,1 -1,1 h -2 c -0.5522847,0 -1,-0.447715 -1,-1 z m 3,0 h -2 v 3 h 2 z" />
</svg>
