<svg viewBox="0 0 16 16" fill="currentColor" class="ci ci-ticket-transactions">
  <path fill-rule="evenodd" d="M13.991 4H2c-.325 0-.502.078-.602.145a.758.758 0 00-.254.302A1.46 1.46 0 001 5.01V6c2 0 2.01 4 0 4v1c0 .325.078.502.145.602.07.105.17.188.302.254.169.082.351.13.538.143L2.01 12H14c.325 0 .502-.078.602-.145a.758.758 0 00.254-.302c.082-.169.13-.351.143-.538L15 10.99V10c-1.994 0-2.011-4 0-4V5s-.078-.502-.145-.602a.757.757 0 00-.302-.254A1.46 1.46 0 0013.99 4zM14 3H2C0 3 0 5 0 5v1.5c1.987 0 1.986 3 0 3V11c0 2 2 2 2 2h12c2 0 2-2 2-2V9.5c-2.003 0-1.996-3 0-3V5c0-2-2-2-2-2z" />
  <circle fill-rule="evenodd" cx="5" cy="6" r="0.5" />
  <circle fill-rule="evenodd" cx="5" cy="8" r="0.5" />
  <circle fill-rule="evenodd" cx="5" cy="10" r="0.5" />
  <path fill-rule="evenodd" d="M 7,10 C 7,9.7238576 7.223858,9.5 7.5,9.5 h 4.000001 c 0.666666,0 0.666666,1 0,1 H 7.5 C 7.223858,10.5 7,10.276142 7,10 Z M 7,8.0000001 c 0,-0.2761424 0.223858,-0.5 0.5,-0.5 h 4.000001 c 0.666666,0 0.666666,1 0,1 H 7.5 c -0.276142,0 -0.5,-0.2238576 -0.5,-0.5 z M 7,6 C 7,5.7238576 7.223858,5.5 7.5,5.5 h 4.000001 c 0.666666,0 0.666666,1 0,1 H 7.5 C 7.223858,6.5 7,6.2761424 7,6 Z" />
</svg>
