<svg width="16" height="16" fill="currentColor" class="ci ci-ticket-arrow-up" viewBox="0 0 16 16" version="1.1">
  <path
     fill-rule="evenodd"
     d="M0 4.5A1.5 1.5 0 0 1 1.5 3h13A1.5 1.5 0 0 1 16 4.5V6a.5.5 0 0 1-.5.5 1.5 1.5 0 0 0 0 3 .5.5 0 0 1 .5.5v1.5a1.5 1.5 0 0 1-1.5 1.5h-13A1.5 1.5 0 0 1 0 11.5V10a.5.5 0 0 1 .5-.5 1.5 1.5 0 1 0 0-3A.5.5 0 0 1 0 6V4.5ZM1.5 4a.5.5 0 0 0-.5.5v1.05a2.5 2.5 0 0 1 0 4.9v1.05a.5.5 0 0 0 .5.5h13a.5.5 0 0 0 .5-.5v-1.05a2.5 2.5 0 0 1 0-4.9V4.5a.5.5 0 0 0-.5-.5h-13Z" />
  <path
     fill-rule="evenodd"
     d="m 7.9999569,11.0505 c -0.276142,0 -0.499999,-0.223859 -0.499999,-0.500001 V 6.6573928 L 6.4539979,8.204393 C 5.9819982,8.6763928 5.3316792,8.0197544 5.7459982,7.4963926 L 7.6459579,5.0963938 c 0.195364,-0.195859 0.512635,-0.195859 0.707999,0 l 1.9000411,2.3999988 c 0.41433,0.5233529 -0.236,1.1800002 -0.7080004,0.7080004 L 8.4999569,6.6573928 v 3.8931062 c 0,0.276142 -0.223858,0.500001 -0.5,0.500001 z" />
</svg>
