<svg width="16" height="16" fill="currentColor" class="ci ci-ticket-arrow-right" viewBox="0 0 16 16" version="1.1">
  <path
     fill-rule="evenodd"
     d="M0 4.5A1.5 1.5 0 0 1 1.5 3h13A1.5 1.5 0 0 1 16 4.5V6a.5.5 0 0 1-.5.5 1.5 1.5 0 0 0 0 3 .5.5 0 0 1 .5.5v1.5a1.5 1.5 0 0 1-1.5 1.5h-13A1.5 1.5 0 0 1 0 11.5V10a.5.5 0 0 1 .5-.5 1.5 1.5 0 1 0 0-3A.5.5 0 0 1 0 6V4.5ZM1.5 4a.5.5 0 0 0-.5.5v1.05a2.5 2.5 0 0 1 0 4.9v1.05a.5.5 0 0 0 .5.5h13a.5.5 0 0 0 .5-.5v-1.05a2.5 2.5 0 0 1 0-4.9V4.5a.5.5 0 0 0-.5-.5h-13Z" />
  <path
     fill-rule="evenodd"
     d="m 4.9495,8.0000433 c 0,0.276142 0.223859,0.499999 0.500001,0.499999 h 3.8931064 l -1.5470002,1.04596 C 7.3236074,10.018002 7.9802459,10.668321 8.5036076,10.254002 L 10.903606,8.3540423 c 0.195859,-0.195364 0.195859,-0.512635 0,-0.707999 L 8.5036076,5.7460022 c -0.5233529,-0.41433 -1.1800002,0.236 -0.7080004,0.7080004 L 9.3426074,7.5000433 H 5.449501 c -0.276142,0 -0.500001,0.223858 -0.500001,0.5 z" />
</svg>
