<svg width="16" height="16" fill="currentColor" class="ci ci-ticket-arrow-down" viewBox="0 0 16 16" version="1.1">
  <path
    fill-rule="evenodd"
    d="M0 4.5A1.5 1.5 0 0 1 1.5 3h13A1.5 1.5 0 0 1 16 4.5V6a.5.5 0 0 1-.5.5 1.5 1.5 0 0 0 0 3 .5.5 0 0 1 .5.5v1.5a1.5 1.5 0 0 1-1.5 1.5h-13A1.5 1.5 0 0 1 0 11.5V10a.5.5 0 0 1 .5-.5 1.5 1.5 0 1 0 0-3A.5.5 0 0 1 0 6V4.5ZM1.5 4a.5.5 0 0 0-.5.5v1.05a2.5 2.5 0 0 1 0 4.9v1.05a.5.5 0 0 0 .5.5h13a.5.5 0 0 0 .5-.5v-1.05a2.5 2.5 0 0 1 0-4.9V4.5a.5.5 0 0 0-.5-.5h-13Z" />
  <path
    fill-rule="evenodd"
    d="m 7.9999569,4.9494996 c -0.276142,0 -0.499999,0.223859 -0.499999,0.500001 V 9.342607 L 6.4539979,7.7956068 C 5.9819982,7.323607 5.3316792,7.9802455 5.7459982,8.5036072 l 1.8999597,2.3999988 c 0.195364,0.195859 0.512635,0.195859 0.707999,0 L 10.253998,8.5036072 C 10.668328,7.9802543 10.017998,7.323607 9.5459976,7.7956068 L 8.4999569,9.342607 V 5.4495006 c 0,-0.276142 -0.223858,-0.500001 -0.5,-0.500001 z" />
</svg>
