<svg viewBox="0 0 16 16" fill="currentColor" class="ci ci-ticket-top-up">
  <path fill-rule="evenodd" d="M13.991 4H2c-.325 0-.502.078-.602.145a.758.758 0 00-.254.302A1.46 1.46 0 001 5.01V6c2 0 2.01 4 0 4v1c0 .325.078.502.145.602.07.105.17.188.302.254.169.082.351.13.538.143L2.01 12H14c.325 0 .502-.078.602-.145a.758.758 0 00.254-.302c.082-.169.13-.351.143-.538L15 10.99V10c-1.994 0-2.011-4 0-4V5s-.078-.502-.145-.602a.757.757 0 00-.302-.254A1.46 1.46 0 0013.99 4zM14 3H2C0 3 0 5 0 5v1.5c1.987 0 1.986 3 0 3V11c0 2 2 2 2 2h12c2 0 2-2 2-2V9.5c-2.003 0-1.996-3 0-3V5c0-2-2-2-2-2z" />
  <circle fill-rule="evenodd" cx="5" cy="6" r="0.5" />
  <circle fill-rule="evenodd" cx="5" cy="8" r="0.5" />
  <circle fill-rule="evenodd" cx="5" cy="10" r="0.5" />
  <path fill-rule="evenodd" d="m 12.601,8.050543 c 0,0.2761421 -0.223858,0.4999991 -0.5,0.4999991 H 8.2078925 l 1.5470002,1.04596 C 10.226893,10.068502 9.570254,10.718821 9.0468925,10.304502 L 6.6468935,8.4045421 c -0.195858,-0.195364 -0.195858,-0.5126352 0,-0.7079991 l 2.399999,-1.9000407 c 0.5233527,-0.41433 1.1800005,0.236 0.7080002,0.708 L 8.2078925,7.550543 H 12.101 c 0.276142,0 0.5,0.2238576 0.5,0.5 z" />
</svg>
