<svg class="ci ci-wallet2-arrow-up-right" viewBox="0 0 16 16" fill="currentColor" version="1.1">
  <path fill-rule="evenodd" d="M 12.136,0.326 A 1.5,1.5 0 0 1 14,1.7799999 v 1.22 h 0.5 a 1.5,1.5 0 0 1 1.5,1.5 V 13.5 A 1.5,1.5 0 0 1 14.5,15 H 1.5 A 1.5,1.5 0 0 1 0,13.5 V 4.4999999 a 1.5,1.5 0 0 1 1.432,-1.499 z M 5.5619999,2.9999999 H 13 v -1.22 A 0.5,0.5 0 0 0 12.379,1.296 Z m -4.0619999,1 a 0.5,0.5 0 0 0 -0.5,0.5 V 13.5 A 0.5,0.5 0 0 0 1.5,14 h 13 A 0.5,0.5 0 0 0 15,13.5 V 4.4999999 a 0.5,0.5 0 0 0 -0.5,-0.5 z" />
  <path fill-rule="evenodd" d="m 5.3128541,11.688066 c -0.1952622,-0.195263 -0.1952622,-0.511845 0,-0.707107 L 9.126281,7.1675319 6.93946,7.1684996 c -0.6675087,-2e-7 -0.6675083,-1.0012123 3e-7,-1.0012635 l 3.3938517,-2.603e-4 c 0.276636,-3.494e-4 0.500981,0.2239959 0.500632,0.5006316 l 2.6e-4,3.3943726 c 5.2e-5,0.667509 -1.0012629,0.667509 -1.001263,10e-7 L 9.8333877,7.8746386 6.0199609,11.688066 c -0.1952622,0.195262 -0.5118446,0.195262 -0.7071068,0 z" />
</svg>
