<svg viewBox="0 0 16 16" fill="currentColor" version="1.1">
  <path fill-rule="evenodd" d="M 12.136,0.326 A 1.5,1.5 0 0 1 14,1.7799999 v 1.22 h 0.5 a 1.5,1.5 0 0 1 1.5,1.5 V 13.5 A 1.5,1.5 0 0 1 14.5,15 H 1.5 A 1.5,1.5 0 0 1 0,13.5 V 4.4999999 a 1.5,1.5 0 0 1 1.432,-1.499 z M 5.5619999,2.9999999 H 13 v -1.22 A 0.5,0.5 0 0 0 12.379,1.296 Z m -4.0619999,1 a 0.5,0.5 0 0 0 -0.5,0.5 V 13.5 A 0.5,0.5 0 0 0 1.5,14 h 13 A 0.5,0.5 0 0 0 15,13.5 V 4.4999999 a 0.5,0.5 0 0 0 -0.5,-0.5 z" />
  <path fill-rule="evenodd" d="m 4.6666667,13 c -0.4227452,0.01628 -0.7544214,-0.397055 -0.6583659,-0.806478 0.1450615,-1.104541 1.08678,-1.941544 2.1134596,-2.2576371 1.122934,-0.3460266 2.3458728,-0.3531134 3.4851731,-0.080253 1.0512975,0.2547334 2.0586135,0.9944034 2.3366085,2.0802614 0.134128,0.37815 0.05788,0.923587 -0.399271,1.028951 -0.381221,0.07032 -0.774613,0.01994 -1.16129,0.03516 -1.9054378,0 -3.8108761,0 -5.7163143,0 z M 8,9 C 9.0941472,9.0296777 10.066347,8.0232107 9.9988007,6.9307473 9.9902592,5.8434122 8.9643592,4.9100012 7.8811494,5.0035345 6.7871722,5.0389293 5.8765002,6.1013909 6.0088471,7.1879097 6.0833096,8.1890381 6.9961909,9.0198904 8,9 Z" />
</svg>
