<svg viewBox="0 0 16 16" fill="currentColor">
  <path fill-rule="evenodd"
     d="M 12.136,0.326 A 1.5,1.5 0 0 1 14,1.7799999 v 1.22 h 0.5 a 1.5,1.5 0 0 1 1.5,1.5 V 13.5 A 1.5,1.5 0 0 1 14.5,15 H 1.5 A 1.5,1.5 0 0 1 0,13.5 V 4.4999999 a 1.5,1.5 0 0 1 1.432,-1.499 z M 5.5619999,2.9999999 H 13 v -1.22 A 0.5,0.5 0 0 0 12.379,1.296 Z m -4.0619999,1 a 0.5,0.5 0 0 0 -0.5,0.5 V 13.5 A 0.5,0.5 0 0 0 1.5,14 h 13 A 0.5,0.5 0 0 0 15,13.5 V 4.4999999 a 0.5,0.5 0 0 0 -0.5,-0.5 z" />
  <path fill-rule="evenodd" d="m 10.863657,7.1468938 c 0.195858,0.1953639 0.195858,0.5126361 0,0.708 L 7.8636573,10.854893 c -0.195364,0.195858 -0.512636,0.195858 -0.708,0 l -1.5,-1.499999 c -0.472,-0.472 0.236,-1.18 0.708,-0.7080002 l 1.146,1.1470002 2.6459997,-2.6470002 c 0.195364,-0.1958584 0.512636,-0.1958584 0.708,0 z" />
</svg>
