<svg viewBox="0 0 16 16" fill="currentColor">
  <path fill-rule="evenodd" d="M 12.136,0.326 A 1.5,1.5 0 0 1 14,1.7799999 v 1.22 h 0.5 a 1.5,1.5 0 0 1 1.5,1.5 V 13.5 A 1.5,1.5 0 0 1 14.5,15 H 1.5 A 1.5,1.5 0 0 1 0,13.5 V 4.4999999 a 1.5,1.5 0 0 1 1.432,-1.499 z M 5.5619999,2.9999999 H 13 v -1.22 A 0.5,0.5 0 0 0 12.379,1.296 Z m -4.0619999,1 a 0.5,0.5 0 0 0 -0.5,0.5 V 13.5 A 0.5,0.5 0 0 0 1.5,14 h 13 A 0.5,0.5 0 0 0 15,13.5 V 4.4999999 a 0.5,0.5 0 0 0 -0.5,-0.5 z" />
  <path fill-rule="evenodd" d="m 4.2,9.0006316 c 0,-0.2761424 0.2238576,-0.5 0.5,-0.5 h 5.393 L 8.5459998,6.955 C 8.074,6.4829999 8.7819641,5.7750363 9.2540002,6.247 L 11.654,8.6466316 c 0.195858,0.1953639 0.195858,0.5126361 0,0.708 L 9.2540002,11.755 C 8.7820366,12.227036 8.074,11.519 8.5459998,11.047 L 10.093,9.5006316 H 4.7 c -0.2761424,0 -0.5,-0.2238576 -0.5,-0.5 z" />
</svg>
