<svg viewBox="0 0 16 16" fill="currentColor">
  <path fill-rule="evenodd" d="M 12.136,0.326 A 1.5,1.5 0 0 1 14,1.7799999 v 1.22 h 0.5 a 1.5,1.5 0 0 1 1.5,1.5 V 13.5 A 1.5,1.5 0 0 1 14.5,15 H 1.5 A 1.5,1.5 0 0 1 0,13.5 V 4.4999999 a 1.5,1.5 0 0 1 1.432,-1.499 z M 5.5619999,2.9999999 H 13 v -1.22 A 0.5,0.5 0 0 0 12.379,1.296 Z m -4.0619999,1 a 0.5,0.5 0 0 0 -0.5,0.5 V 13.5 A 0.5,0.5 0 0 0 1.5,14 h 13 A 0.5,0.5 0 0 0 15,13.5 V 4.4999999 a 0.5,0.5 0 0 0 -0.5,-0.5 z" />
  <path fill-rule="evenodd" d="m 9.800894,7.7092744 c 0,-0.2761428 -0.223858,-0.5000004 -0.5,-0.5000004 H 3.9078935 L 5.4548937,5.6636424 C 5.9268935,5.1916423 5.2189294,4.4836787 4.7468933,4.9556424 L 2.3468935,7.355274 c -0.195858,0.1953639 -0.195858,0.5126364 0,0.7080004 l 2.3999998,2.4003676 c 0.4719636,0.472036 1.1800002,-0.236 0.7080004,-0.7079996 L 3.9078935,8.2092744 H 9.300894 c 0.276142,0 0.5,-0.223858 0.5,-0.5 z" />
  <path fill-rule="evenodd" d="m 6.2,10.309274 c 0,-0.276143 0.223858,-0.4999996 0.5,-0.4999996 h 5.393 l -1.547,-1.545632 c -0.471999,-0.4720001 0.235965,-1.1799637 0.708001,-0.708 L 13.654,9.9552744 c 0.195859,0.1953626 0.195859,0.5126356 0,0.7079996 l -2.399999,2.400368 c -0.471964,0.472036 -1.18,-0.236 -0.708001,-0.708 l 1.547,-1.546368 H 6.7 c -0.276142,0 -0.5,-0.223858 -0.5,-0.5 z" />
</svg>
