<svg width="16" height="16" fill="currentColor" class="ci ci-wallet3" viewBox="0 0 16 16" version="1.1">
  <path fill-rule="evenodd" d="M 12.136,0.326 C 13.082303,0.08928808 13.999243,0.8045403 14,1.78 V 3 h 0.5 C 15.328427,3 16,3.6715729 16,4.5 V 14 c 0,0.828427 -0.671573,1.5 -1.5,1.5 H 1.5 C 0.67157288,15.5 0,14.828427 0,14 V 4.5 C -2.8992491e-4,3.6978048 0.63062951,3.0373661 1.432,3.001 Z M 5.562,3 H 13 V 1.78 C 12.999261,1.455298 12.694051,1.2174211 12.379,1.296 Z M 1.5,4 C 1.2238576,4 1,4.2238576 1,4.5 V 14 c 0,0.276142 0.2238576,0.5 0.5,0.5 h 13 C 14.776142,14.5 15,14.276142 15,14 V 4.5 C 15,4.2238576 14.776142,4 14.5,4 Z" />
</svg>
